<svg width="94" height="94" viewBox="0 0 94 94" fill="none" xmlns="http://www.w3.org/2000/svg">
<rect width="94" height="94" rx="10" fill="#FFB8B8"/>
<g clip-path="url(#clip0_369_1312)">
<path d="M49.8813 83.0472C49.1372 83.0472 48.4401 82.8211 47.9751 82.3695L47.929 82.3315L47.882 82.2935C40.9558 75.1367 31.7061 67.4903 28.8706 67.3396C27.6154 67.9045 26.1281 68.1686 24.5939 68.1686C20.225 68.1686 15.9943 65.9089 14.554 62.7447C13.5778 60.7111 12.9737 56.5297 19.6669 51.7461C27.1503 46.4348 34.0296 42.2161 48.6714 40.4459C49.9726 40.2952 51.1818 40.2198 52.297 40.2198C62.2908 40.2198 63.0341 46.4722 63.453 49.8251C63.546 50.6542 63.639 51.4072 63.8251 51.9348C64.1502 52.8386 66.7997 55.7767 81.1163 65.4947C82.1385 66.173 82.6966 67.2656 82.5575 68.3201C82.4176 69.4126 81.6274 70.3537 80.4652 70.8813L80.0932 71.032C54.5753 82.1427 51.3217 83.0472 49.8813 83.0472Z" fill="#E7A664"/>
<path d="M49.9265 84.6415C48.6362 84.6415 47.4086 84.2069 46.559 83.4484L46.4039 83.3221L46.3688 83.2665C40.0031 76.7235 32.3018 70.3741 29.1781 69.0887L28.9837 69.0092L28.7826 69.0765C27.5173 69.5009 26.0527 69.7256 24.5478 69.7256C19.3049 69.7256 14.4216 67.0863 12.6737 63.3076C11.7704 61.3317 10.5144 56.1338 18.3522 50.5849C26.0744 45.0768 33.185 40.7182 48.3236 38.8855C49.6039 38.7131 50.9228 38.6262 52.2509 38.6262C57.27 38.6262 60.951 40.0989 63.1916 43.0038C64.8582 45.2309 65.1716 47.8105 65.3995 49.6934C65.4464 50.314 65.5428 51.0012 65.6383 51.3889L65.6525 51.4473L65.6886 51.4996C66.5491 52.755 70.1463 55.996 82.3924 64.301C83.9275 65.3324 84.7159 66.8962 84.5031 68.4864C84.3322 70.0807 83.1733 71.4876 81.4028 72.2576L81.0442 72.4023C52.9682 84.6415 51.5588 84.6415 49.9265 84.6415ZM49.2931 81.2389C49.3685 81.3455 49.521 81.4528 49.8344 81.4528C51.3217 81.4528 61.297 77.4073 79.4832 69.4282C80.1015 69.1546 80.513 68.6555 80.5825 68.0919C80.652 67.5304 80.3747 66.9776 79.8409 66.6137L79.3918 66.3061C74.8713 63.2139 62.8623 55.0005 61.9104 52.2634C61.6984 51.6367 61.5995 50.8104 61.4948 49.9351C61.0809 46.4762 60.5136 41.7388 52.2518 41.7388C51.2546 41.7388 50.167 41.8141 48.9261 41.9689C34.8064 43.7059 28.1592 47.7725 20.9364 52.9078C15.0911 57.0417 15.5259 60.4849 16.306 62.1696C17.4875 64.722 20.954 66.575 24.5486 66.575C25.8733 66.575 27.0473 66.3428 28.0368 65.8838C28.2203 65.7948 28.47 65.7459 28.7315 65.7459C33.2219 65.7459 45.0666 76.8994 49.2931 81.2389Z" fill="#4C2F1B"/>
<path d="M49.4163 75.853V81.6912C49.4163 82.633 50.6715 83.2733 51.7406 82.821L82.1402 69.9015C82.6513 69.6754 83.0234 69.2231 83.0234 68.7716V62.2178L50.3455 74.6851C49.7883 74.8732 49.4163 75.3254 49.4163 75.853Z" fill="#E7A664"/>
<path d="M79.3968 68.7336C79.3968 67.9425 79.1647 67.8672 78.8388 67.8672C78.5137 67.8672 78.2346 68.5075 78.2346 69.2985C78.2346 70.0896 78.4667 70.4664 78.7927 70.4664C79.1647 70.4664 79.3968 69.5246 79.3968 68.7336ZM62.4777 72.0485C62.4777 71.2575 62.2456 71.1821 61.9196 71.1821C61.5945 71.1821 61.3155 71.8224 61.3155 72.6135C61.3155 73.4045 61.5476 73.7807 61.8735 73.7807C62.1986 73.7814 62.4777 72.8396 62.4777 72.0485ZM61.5015 74.8359C61.5015 74.0448 61.2694 73.9694 60.9434 73.9694C60.6175 73.9694 60.3393 74.6097 60.3393 75.4008C60.3393 76.1918 60.5714 76.5687 60.8973 76.5687C61.2233 76.5687 61.5015 75.6269 61.5015 74.8359ZM66.9396 74.6478C66.9396 73.8567 66.7075 73.7814 66.3815 73.7814C66.0564 73.7814 65.7774 74.4217 65.7774 75.2127C65.7774 76.0038 66.0095 76.3799 66.3354 76.3799C66.7075 76.3426 66.9396 75.4388 66.9396 74.6478ZM71.9134 71.8978C71.9134 71.2575 71.7274 71.1821 71.4953 71.1821C71.2632 71.1821 71.0311 71.7097 71.0311 72.35C71.0311 72.9903 71.2171 73.2918 71.4953 73.2918C71.7743 73.2911 71.9134 72.5381 71.9134 71.8978Z" fill="#DB914D"/>
<path d="M51.02 85C50.3388 85 49.738 84.8594 49.1842 84.5715C48.1083 84.0351 47.4949 83.1517 47.4949 82.1448V76.3059C47.4949 75.1815 48.2968 74.1895 49.588 73.7169L84.943 60.1869V69.2245C84.943 70.3211 84.2224 71.2778 83.0142 71.7844L52.6598 84.7046C52.0331 84.8975 51.4801 85 51.02 85ZM51.3837 76.4764V81.6851L81.1029 69.0799V65.1552L51.3837 76.4764Z" fill="#4C2F1B"/>
<path d="M67.2194 70.5038C67.2194 70.1276 67.1264 70.0515 66.9404 70.0515C66.8013 70.0515 66.6614 70.353 66.6614 70.7672C66.6614 71.1814 66.8013 71.3322 66.9404 71.3322C67.0795 71.3328 67.2194 70.9186 67.2194 70.5038Z" fill="#DB914D"/>
<path d="M50.2994 74.4217C49.5562 74.4217 48.859 74.1955 48.394 73.7433L48.3471 73.7053L48.3001 73.668C41.3748 66.5112 32.125 58.8641 29.2895 58.7141C28.0343 59.279 26.547 59.5431 25.0128 59.5431C20.6431 59.5431 16.4133 57.2827 14.9729 54.1192C13.9967 52.0475 13.3918 47.8668 20.132 43.1205C27.6162 37.8086 34.4955 33.5899 49.1372 31.8197C50.4385 31.669 51.6468 31.5936 52.7629 31.5936C62.7567 31.5936 63.4999 37.846 63.9189 41.1983C64.0119 42.0273 64.1049 42.7804 64.2909 43.308C64.616 44.2124 67.2655 47.1505 81.5821 56.8685C82.6044 57.5842 83.1624 58.6387 83.0225 59.6932C82.8834 60.7857 82.0933 61.7275 80.9311 62.2544L80.559 62.4052C54.9473 73.5172 51.6937 74.4217 50.2994 74.4217Z" fill="#F9D59A"/>
<path d="M50.3882 76.0153C49.0987 76.0153 47.8703 75.5807 47.019 74.8223L46.8648 74.6967L46.8313 74.6423C40.4648 68.0973 32.7619 61.7479 29.6389 60.4625L29.4446 60.3831L29.2435 60.4503C27.9774 60.8747 26.5135 61.0994 25.0086 61.0994C19.7658 61.0994 14.8833 58.4601 13.1345 54.6807C12.1961 52.7245 10.8747 47.5783 18.8131 41.9581C26.5353 36.4506 33.6442 32.0927 48.7853 30.2594C50.0648 30.0869 51.3837 30 52.7135 30C57.7317 30 61.4127 31.4728 63.6541 34.3776C65.3232 36.6068 65.6341 39.185 65.862 41.0672C65.9098 41.694 66.007 42.3804 66.1017 42.7627L66.1159 42.8211L66.1519 42.8734C67.0116 44.1282 70.608 47.3678 82.8558 55.6748C84.3917 56.7056 85.1801 58.2693 84.9665 59.8596C84.7947 61.4546 83.6367 62.8615 81.8662 63.6315L81.5059 63.7775C53.4307 76.0153 52.0205 76.0153 50.3882 76.0153ZM49.7548 72.6508C49.8302 72.7574 49.9827 72.8647 50.2952 72.8647C51.7842 72.8647 61.7596 68.8191 79.944 60.8401C80.5632 60.5664 80.9738 60.0667 81.0442 59.5031C81.1137 58.9415 80.8364 58.3888 80.3026 58.0249L79.8569 57.72C75.3355 54.6271 63.3248 46.4117 62.3721 43.6746C62.1601 43.0479 62.0612 42.2215 61.9565 41.3463C61.5426 37.8881 60.9753 33.1506 52.7135 33.1506C51.7222 33.1506 50.6513 33.224 49.3434 33.3808C35.2035 35.0831 28.8413 38.9888 21.3964 44.321C15.5519 48.4535 15.9868 51.8968 16.7669 53.5821C17.9484 56.1345 21.4148 57.9875 25.0095 57.9875C26.335 57.9875 27.509 57.7553 28.4977 57.297C28.682 57.2073 28.9317 57.1585 29.1923 57.1585C33.6844 57.1578 45.5283 68.3112 49.7548 72.6508Z" fill="#4C2F1B"/>
<path d="M49.8813 69.1858C49.4632 69.1858 49.0442 69.0351 48.7652 68.7716C48.2541 68.282 48.3471 67.5283 48.9512 67.1141L68.9849 53.6296C69.5891 53.2154 70.5191 53.2908 71.0303 53.7804C71.5414 54.2699 71.4484 55.0237 70.8443 55.4378L50.8106 68.9217C50.5324 69.1104 50.2064 69.1858 49.8813 69.1858ZM37.9351 59.6185C37.517 59.6185 37.0989 59.4678 36.8199 59.2043C36.3079 58.7148 36.4018 57.9611 37.0059 57.5469L58.4808 43.0825C59.085 42.6683 60.015 42.7437 60.5262 43.2333C61.0373 43.7228 60.9443 44.4759 60.3402 44.8901L38.8644 59.3544C38.5862 59.5051 38.2603 59.6185 37.9351 59.6185ZM26.175 52.7252C25.7569 52.7252 25.3388 52.5745 25.0597 52.311C24.5478 51.8214 24.6416 51.0677 25.2458 50.6535L46.7199 36.1892C47.324 35.775 48.2541 35.8504 48.7652 36.3399C49.2763 36.8295 49.1833 37.5825 48.5792 37.9967L27.1051 52.4617C26.8261 52.6498 26.5001 52.7252 26.175 52.7252Z" fill="#E7A664"/>
<path d="M47.5108 42.2161C61.8735 38.9018 57.4577 47.6027 61.7344 48.9207C65.035 49.9378 71.5422 53.2901 66.5223 56.0394C62.4316 58.2999 55.7383 66.1723 48.2549 60.7477C44.0251 57.7343 40.1204 59.7306 38.2142 57.0566C36.3088 54.382 36.4948 53.5162 33.2872 53.4028C30.0797 53.2901 26.0828 49.6737 29.5225 44.4005C34.1235 37.3944 43.4201 43.1579 47.5108 42.2161Z" fill="#F4E87C"/>
<path d="M53.5991 63.7992C51.6007 63.7992 49.4623 63.1962 47.324 61.6522C45.5116 60.3715 43.7913 60.1454 42.118 59.9567C40.3056 59.7306 38.2603 59.5044 36.959 57.6969C36.5408 57.132 36.2618 56.6797 35.9828 56.2656C35.0066 54.7588 34.9597 54.6835 33.1942 54.6088C31.1019 54.5334 28.9644 53.4028 27.8022 51.7087C26.873 50.4274 25.7108 47.6781 28.2204 43.9116C31.8921 38.3369 38.3533 39.6929 42.63 40.5973C44.3963 40.9735 46.1626 41.3504 47.1388 41.1249C57.2717 38.7891 59.4101 42.0287 60.7574 45.5698C61.2225 46.8504 61.5945 47.6034 62.2917 47.8295C62.5707 47.9049 69.31 50.0146 69.822 53.4422C69.9611 54.384 69.636 55.7773 67.4046 57.0206C66.6145 57.4355 65.6844 58.1505 64.6621 58.9042C61.9205 60.8611 58.0158 63.7992 53.5991 63.7992ZM36.4009 42.0654C34.0305 42.0654 32.218 42.781 30.7768 45.0035C29.4286 47.0751 29.2426 49.0341 30.3126 50.5408C31.1028 51.6707 32.4041 52.2356 33.3333 52.273C36.5869 52.3864 37.3771 53.3275 38.5393 55.173C38.7722 55.5499 39.0973 56.0021 39.4694 56.529C40.0274 57.3201 40.8167 57.4708 42.537 57.6589C44.4424 57.885 46.7668 58.1485 49.2302 59.9193C53.8321 63.2336 57.8758 60.7477 62.6629 57.1693C63.732 56.3783 64.7551 55.6252 65.6844 55.0977C66.5215 54.6081 66.9396 54.1559 66.8935 53.7036C66.7075 52.4984 63.825 50.8036 61.2225 50.0125C59.1302 49.3722 58.5261 47.7148 57.9689 46.246C56.9927 43.6848 56.1556 41.4244 47.882 43.346C46.1618 43.7228 44.1634 43.308 41.8859 42.8184C39.7945 42.4042 37.9821 42.0654 36.4009 42.0654Z" fill="#4C2F1B"/>
<path d="M55.3663 47.7154C54.9943 47.7154 54.6692 47.5647 54.4831 47.3005C53.693 46.0573 52.9958 45.5677 51.9728 45.6431C51.5546 45.6811 51.0435 45.7938 50.4394 45.9819C48.8121 46.4341 46.5347 46.9991 43.328 46.1326C39.4702 45.0781 35.7515 45.1155 35.7046 45.1155C35.1935 45.1155 34.7285 44.7767 34.7285 44.3625C34.7285 43.9483 35.1466 43.5714 35.6577 43.5714C35.7976 43.5714 39.7015 43.5334 43.9313 44.6639C46.5338 45.3796 48.3002 44.8901 49.8344 44.5132C50.5315 44.3244 51.1357 44.1744 51.7867 44.1363C54.5292 43.9483 55.7375 45.9065 56.2025 46.6602C56.4355 47.0364 56.2495 47.5267 55.7844 47.7147C55.6453 47.6781 55.5054 47.7154 55.3663 47.7154Z" fill="white"/>
<path d="M43.6531 51.0677C43.6531 51.5043 44.9426 51.8588 46.5347 51.8588C48.1259 51.8588 49.4163 51.5043 49.4163 51.0677C49.4163 50.6311 48.1259 50.2767 46.5347 50.2767C44.9426 50.2767 43.6531 50.6311 43.6531 51.0677Z" fill="white"/>
<path d="M33.5193 65.6828C33.5193 66.099 33.6853 66.4358 33.8914 66.4358C34.0967 66.4358 34.2626 66.0983 34.2626 65.6828C34.2626 65.2665 34.0967 64.9297 33.8914 64.9297C33.6861 64.9297 33.5193 65.2665 33.5193 65.6828Z" fill="#DB914D"/>
<path d="M41.9789 72.8776C41.9789 73.2313 42.1038 73.5179 42.258 73.5179C42.4121 73.5179 42.537 73.2313 42.537 72.8776C42.537 72.5238 42.4121 72.2373 42.258 72.2373C42.1046 72.2366 41.9789 72.5231 41.9789 72.8776Z" fill="#DB914D"/>
<path d="M25.0137 63.5357C25.0137 64.0348 25.2215 64.4395 25.4779 64.4395C25.7351 64.4395 25.9429 64.0348 25.9429 63.5357C25.9429 63.0367 25.7351 62.6313 25.4779 62.6313C25.2215 62.6313 25.0137 63.0367 25.0137 63.5357Z" fill="#DB914D"/>
<path d="M37.7491 69.1485C37.7491 69.6475 37.9569 70.0522 38.2134 70.0522C38.4706 70.0522 38.6784 69.6475 38.6784 69.1485C38.6784 68.6494 38.4706 68.244 38.2134 68.244C37.9569 68.244 37.7491 68.6487 37.7491 69.1485Z" fill="#DB914D"/>
<path d="M18.4125 62.4432C18.4125 63.3796 18.6413 64.1387 18.9237 64.1387C19.206 64.1387 19.4348 63.3796 19.4348 62.4432C19.4348 61.5068 19.206 60.7484 18.9237 60.7484C18.6413 60.7484 18.4125 61.5068 18.4125 62.4432Z" fill="#DB914D"/>
<path d="M75.7251 68.282C75.7251 67.6417 75.5391 67.5663 75.307 67.5663C75.074 67.5663 74.8419 68.0939 74.8419 68.7336C74.8419 69.3739 75.0279 69.6754 75.307 69.6754C75.5391 69.6754 75.7251 68.9217 75.7251 68.282ZM56.0634 76.7948C56.0634 76.2299 55.9235 76.1545 55.6453 76.1545C55.4132 76.1545 55.2272 76.6441 55.2272 77.209C55.2272 77.7739 55.4132 78.0754 55.6453 78.0754C55.8774 78.0374 56.0634 77.3597 56.0634 76.7948Z" fill="#DB914D"/>
<path d="M58.7129 58.8275C58.5269 58.8275 58.3409 58.7895 58.1549 58.6767C57.7368 58.4506 57.5968 57.9611 57.9228 57.5842C58.852 56.4917 61.1303 55.2111 62.8036 54.27C63.2218 54.0438 63.5938 53.8177 63.8728 53.667C63.3609 53.2908 62.1065 52.7252 60.6192 52.4998C57.7376 52.0475 56.2964 49.1475 56.2034 49.0341C56.0174 48.6192 56.2503 48.1677 56.7145 48.0169C57.2256 47.8662 57.7837 48.0543 57.9697 48.4311C58.2948 49.0341 59.4101 50.6909 60.9443 50.9543C62.7567 51.2558 65.4531 52.1976 65.8713 53.4029C66.0103 53.8551 65.8713 54.3073 65.4531 54.6088C65.128 54.8349 64.6169 55.1364 63.8259 55.5506C62.3847 56.3416 60.2002 57.5842 59.4562 58.4506C59.3171 58.7141 59.0381 58.8275 58.7129 58.8275Z" fill="white"/>
<path d="M39.5825 37.8956C39.7182 38.1875 40.841 38.1156 42.0904 37.734C43.3397 37.353 44.2421 36.8071 44.1072 36.5151C43.9715 36.2232 42.8487 36.2951 41.5993 36.6767C40.35 37.0577 39.4467 37.6029 39.5825 37.8956Z" fill="#F8CD8C"/>
<path d="M48.74 70.7788C48.8867 71.0931 49.4523 71.2527 50.2257 71.197C50.9991 71.1407 51.8613 70.8779 52.488 70.5071C53.1148 70.1357 53.4106 69.7134 53.264 69.3983C53.1173 69.0839 52.5517 68.9244 51.7783 68.9801C51.0049 69.0357 50.1427 69.2992 49.516 69.6699C48.8892 70.0413 48.5943 70.4637 48.74 70.7788Z" fill="#F8CD8C"/>
<path d="M22.8091 54.8743C23.0479 55.3116 24.2319 55.3116 25.4519 54.8736C26.6727 54.4363 27.4688 53.7267 27.2299 53.2888C26.9911 52.8515 25.808 52.8515 24.5872 53.2888C23.3663 53.7274 22.5703 54.437 22.8091 54.8743Z" fill="#F8CD8C"/>
<path d="M70.4907 60.2677C70.7295 60.7049 71.9126 60.7049 73.1335 60.267C74.3543 59.8297 75.1503 59.1201 74.9115 58.6822C74.6727 58.2442 73.4887 58.2449 72.2679 58.6822C71.0479 59.1208 70.2519 59.8304 70.4907 60.2677Z" fill="#F8CD8C"/>
<path d="M54.9197 68.354C55.1585 68.7913 56.3416 68.7913 57.5625 68.354C58.7833 67.9167 59.5793 67.2065 59.3397 66.7692C59.1009 66.3319 57.9177 66.3319 56.6969 66.7699C55.476 67.2072 54.6809 67.9167 54.9197 68.354Z" fill="#F8CD8C"/>
<path d="M19.9736 47.382C20.1085 47.6292 20.7889 47.6251 21.4928 47.3725C22.1974 47.1199 22.6583 46.7146 22.5242 46.4674C22.3893 46.2203 21.7089 46.2243 21.0042 46.4769C20.3004 46.7295 19.8387 47.1342 19.9736 47.382Z" fill="#F8CD8C"/>
</g>
<path d="M13.6953 14.4688H15.3066V20.1348C15.3066 20.7871 15.166 21.3359 14.8848 21.7812C14.6035 22.2227 14.2207 22.5566 13.7363 22.7832C13.252 23.0059 12.7012 23.1172 12.084 23.1172C11.459 23.1172 10.9023 23.0059 10.4141 22.7832C9.92578 22.5566 9.54297 22.2227 9.26562 21.7812C8.98828 21.3359 8.84961 20.7871 8.84961 20.1348V14.4688H10.4609V20.1348C10.4609 20.5332 10.5273 20.8594 10.6602 21.1133C10.793 21.3633 10.9805 21.5488 11.2227 21.6699C11.4648 21.791 11.752 21.8516 12.084 21.8516C12.4199 21.8516 12.707 21.791 12.9453 21.6699C13.1875 21.5488 13.373 21.3633 13.502 21.1133C13.6309 20.8594 13.6953 20.5332 13.6953 20.1348V14.4688ZM18.2363 18.0137V23H16.6895V16.6602H18.1426L18.2363 18.0137ZM17.9902 19.6016H17.5332C17.5371 19.1406 17.5996 18.7227 17.7207 18.3477C17.8418 17.9727 18.0117 17.6504 18.2305 17.3809C18.4531 17.1113 18.7168 16.9043 19.0215 16.7598C19.3262 16.6152 19.666 16.543 20.041 16.543C20.3457 16.543 20.6211 16.5859 20.8672 16.6719C21.1133 16.7578 21.3242 16.8945 21.5 17.082C21.6797 17.2695 21.8164 17.5156 21.9102 17.8203C22.0078 18.1211 22.0566 18.4922 22.0566 18.9336V23H20.498V18.9219C20.498 18.6328 20.4551 18.4043 20.3691 18.2363C20.2871 18.0684 20.166 17.9492 20.0059 17.8789C19.8496 17.8086 19.6562 17.7734 19.4258 17.7734C19.1875 17.7734 18.9785 17.8223 18.7988 17.9199C18.623 18.0137 18.4746 18.1445 18.3535 18.3125C18.2363 18.4805 18.1465 18.6738 18.084 18.8926C18.0215 19.1113 17.9902 19.3477 17.9902 19.6016ZM27.2246 21.6523V14H28.7832V23H27.377L27.2246 21.6523ZM23.1523 19.9062V19.7832C23.1523 19.2988 23.207 18.8594 23.3164 18.4648C23.4297 18.0664 23.5938 17.7246 23.8086 17.4395C24.0234 17.1543 24.2832 16.9336 24.5879 16.7773C24.8965 16.6211 25.2461 16.543 25.6367 16.543C26.0156 16.543 26.3457 16.6191 26.627 16.7715C26.9121 16.9238 27.1543 17.1406 27.3535 17.4219C27.5566 17.7031 27.7188 18.0371 27.8398 18.4238C27.9609 18.8066 28.0488 19.2285 28.1035 19.6895V20.0234C28.0488 20.4727 27.9609 20.8848 27.8398 21.2598C27.7188 21.6348 27.5566 21.9629 27.3535 22.2441C27.1543 22.5215 26.9121 22.7363 26.627 22.8887C26.3418 23.041 26.0078 23.1172 25.625 23.1172C25.2383 23.1172 24.8906 23.0371 24.582 22.877C24.2773 22.7168 24.0176 22.4922 23.8027 22.2031C23.5918 21.9141 23.4297 21.5742 23.3164 21.1836C23.207 20.793 23.1523 20.3672 23.1523 19.9062ZM24.7051 19.7832V19.9062C24.7051 20.1797 24.7285 20.4355 24.7754 20.6738C24.8223 20.9121 24.8984 21.123 25.0039 21.3066C25.1094 21.4863 25.2441 21.627 25.4082 21.7285C25.5762 21.8301 25.7793 21.8809 26.0176 21.8809C26.3223 21.8809 26.5723 21.8145 26.7676 21.6816C26.9668 21.5449 27.1211 21.3594 27.2305 21.125C27.3398 20.8867 27.4102 20.6191 27.4414 20.3223V19.4023C27.4258 19.168 27.3848 18.9512 27.3184 18.752C27.2559 18.5527 27.166 18.3809 27.0488 18.2363C26.9355 18.0918 26.7949 17.9785 26.627 17.8965C26.459 17.8145 26.2598 17.7734 26.0293 17.7734C25.791 17.7734 25.5879 17.8262 25.4199 17.9316C25.252 18.0332 25.1152 18.1758 25.0098 18.3594C24.9043 18.543 24.8262 18.7559 24.7754 18.998C24.7285 19.2402 24.7051 19.502 24.7051 19.7832ZM33.0312 23.1172C32.5508 23.1172 32.1191 23.0391 31.7363 22.8828C31.3535 22.7266 31.0273 22.5098 30.7578 22.2324C30.4922 21.9512 30.2871 21.625 30.1426 21.2539C30.002 20.8789 29.9316 20.4766 29.9316 20.0469V19.8125C29.9316 19.3242 30.002 18.8809 30.1426 18.4824C30.2832 18.0801 30.4824 17.7344 30.7402 17.4453C30.998 17.1562 31.3066 16.9336 31.666 16.7773C32.0254 16.6211 32.4219 16.543 32.8555 16.543C33.3047 16.543 33.7012 16.6191 34.0449 16.7715C34.3887 16.9199 34.6758 17.1309 34.9062 17.4043C35.1367 17.6777 35.3105 18.0059 35.4277 18.3887C35.5449 18.7676 35.6035 19.1875 35.6035 19.6484V20.2988H30.6348V19.2324H34.0801V19.1152C34.0723 18.8691 34.0254 18.6445 33.9395 18.4414C33.8535 18.2344 33.7207 18.0703 33.541 17.9492C33.3613 17.8242 33.1289 17.7617 32.8438 17.7617C32.6133 17.7617 32.4121 17.8125 32.2402 17.9141C32.0723 18.0117 31.9316 18.1523 31.8184 18.3359C31.709 18.5156 31.627 18.7305 31.5723 18.9805C31.5176 19.2305 31.4902 19.5078 31.4902 19.8125V20.0469C31.4902 20.3125 31.5254 20.5586 31.5957 20.7852C31.6699 21.0117 31.7773 21.209 31.918 21.377C32.0625 21.541 32.2344 21.6699 32.4336 21.7637C32.6367 21.8535 32.8672 21.8984 33.125 21.8984C33.4492 21.8984 33.7422 21.8359 34.0039 21.7109C34.2695 21.582 34.5 21.3926 34.6953 21.1426L35.4746 21.9512C35.3418 22.1465 35.1621 22.334 34.9355 22.5137C34.7129 22.6934 34.4434 22.8398 34.127 22.9531C33.8105 23.0625 33.4453 23.1172 33.0312 23.1172ZM38.1875 17.9551V23H36.6406V16.6602H38.1055L38.1875 17.9551ZM40.1152 16.6191L40.0918 18.0605C40.0059 18.0449 39.9082 18.0332 39.7988 18.0254C39.6934 18.0176 39.5938 18.0137 39.5 18.0137C39.2617 18.0137 39.0527 18.0469 38.873 18.1133C38.6934 18.1758 38.543 18.2676 38.4219 18.3887C38.3047 18.5098 38.2148 18.6582 38.1523 18.834C38.0898 19.0059 38.0547 19.2012 38.0469 19.4199L37.7129 19.3789C37.7129 18.9766 37.7539 18.6035 37.8359 18.2598C37.918 17.916 38.0371 17.6152 38.1934 17.3574C38.3496 17.0996 38.5449 16.9004 38.7793 16.7598C39.0176 16.6152 39.291 16.543 39.5996 16.543C39.6855 16.543 39.7773 16.5508 39.875 16.5664C39.9766 16.5781 40.0566 16.5957 40.1152 16.6191ZM45.4062 19.0742L44.1699 18.7754L44.6445 14.4688H49.3379V15.752H45.9277L45.7051 17.7441C45.8262 17.6699 46.002 17.5957 46.2324 17.5215C46.4668 17.4434 46.7305 17.4043 47.0234 17.4043C47.4297 17.4043 47.793 17.4707 48.1133 17.6035C48.4336 17.7324 48.7051 17.9199 48.9277 18.166C49.1543 18.4121 49.3242 18.7129 49.4375 19.0684C49.5547 19.4199 49.6133 19.8184 49.6133 20.2637C49.6133 20.6543 49.5547 21.0215 49.4375 21.3652C49.3242 21.7051 49.1504 22.0078 48.916 22.2734C48.6816 22.5352 48.3867 22.7422 48.0312 22.8945C47.6758 23.043 47.2578 23.1172 46.7773 23.1172C46.4141 23.1172 46.0645 23.0645 45.7285 22.959C45.3965 22.8496 45.0977 22.6914 44.832 22.4844C44.5664 22.2734 44.3535 22.0156 44.1934 21.7109C44.0371 21.4062 43.9512 21.0566 43.9355 20.6621H45.4648C45.4922 20.9238 45.5625 21.1465 45.6758 21.3301C45.7891 21.5137 45.9375 21.6543 46.1211 21.752C46.3086 21.8496 46.5254 21.8984 46.7715 21.8984C46.9941 21.8984 47.1855 21.8574 47.3457 21.7754C47.5098 21.6895 47.6445 21.5703 47.75 21.418C47.8555 21.2656 47.9336 21.0859 47.9844 20.8789C48.0352 20.6719 48.0605 20.4453 48.0605 20.1992C48.0605 19.9609 48.0312 19.7441 47.9727 19.5488C47.9141 19.3496 47.8242 19.1777 47.7031 19.0332C47.582 18.8887 47.4297 18.7773 47.2461 18.6992C47.0664 18.6211 46.8555 18.582 46.6133 18.582C46.2891 18.582 46.0391 18.6309 45.8633 18.7285C45.6914 18.8262 45.5391 18.9414 45.4062 19.0742ZM56.375 18.002V19.4375C56.375 20.0938 56.3086 20.6543 56.1758 21.1191C56.043 21.584 55.8516 21.9648 55.6016 22.2617C55.3516 22.5547 55.0527 22.7715 54.7051 22.9121C54.3574 23.0488 53.9707 23.1172 53.5449 23.1172C53.2051 23.1172 52.8887 23.0742 52.5957 22.9883C52.3027 22.8984 52.0391 22.7617 51.8047 22.5781C51.5742 22.3906 51.375 22.1523 51.207 21.8633C51.043 21.5742 50.916 21.2285 50.8262 20.8262C50.7402 20.4238 50.6973 19.9609 50.6973 19.4375V18.002C50.6973 17.3457 50.7637 16.7871 50.8965 16.3262C51.0332 15.8652 51.2266 15.4883 51.4766 15.1953C51.7266 14.9023 52.0254 14.6895 52.373 14.5566C52.7207 14.4199 53.1074 14.3516 53.5332 14.3516C53.877 14.3516 54.1934 14.3945 54.4824 14.4805C54.7754 14.5664 55.0371 14.7012 55.2676 14.8848C55.502 15.0645 55.7012 15.2988 55.8652 15.5879C56.0293 15.873 56.1543 16.2168 56.2402 16.6191C56.3301 17.0176 56.375 17.4785 56.375 18.002ZM54.8281 19.6484V17.7852C54.8281 17.457 54.8086 17.1719 54.7695 16.9297C54.7344 16.6836 54.6816 16.4746 54.6113 16.3027C54.541 16.1309 54.4531 15.9922 54.3477 15.8867C54.2422 15.7773 54.1211 15.6973 53.9844 15.6465C53.8477 15.5957 53.6973 15.5703 53.5332 15.5703C53.3301 15.5703 53.1484 15.6113 52.9883 15.6934C52.8281 15.7715 52.6934 15.8965 52.584 16.0684C52.4746 16.2402 52.3906 16.4688 52.332 16.7539C52.2773 17.0352 52.25 17.3789 52.25 17.7852V19.6484C52.25 19.9766 52.2676 20.2637 52.3027 20.5098C52.3418 20.7559 52.3965 20.9668 52.4668 21.1426C52.541 21.3184 52.6289 21.4629 52.7305 21.5762C52.8359 21.6855 52.957 21.7676 53.0938 21.8223C53.2305 21.873 53.3809 21.8984 53.5449 21.8984C53.752 21.8984 53.9336 21.8574 54.0898 21.7754C54.25 21.6934 54.3848 21.5645 54.4941 21.3887C54.6035 21.209 54.6855 20.9766 54.7402 20.6914C54.7988 20.4023 54.8281 20.0547 54.8281 19.6484ZM63.2305 18.002V19.4375C63.2305 20.0938 63.1641 20.6543 63.0312 21.1191C62.8984 21.584 62.707 21.9648 62.457 22.2617C62.207 22.5547 61.9082 22.7715 61.5605 22.9121C61.2129 23.0488 60.8262 23.1172 60.4004 23.1172C60.0605 23.1172 59.7441 23.0742 59.4512 22.9883C59.1582 22.8984 58.8945 22.7617 58.6602 22.5781C58.4297 22.3906 58.2305 22.1523 58.0625 21.8633C57.8984 21.5742 57.7715 21.2285 57.6816 20.8262C57.5957 20.4238 57.5527 19.9609 57.5527 19.4375V18.002C57.5527 17.3457 57.6191 16.7871 57.752 16.3262C57.8887 15.8652 58.082 15.4883 58.332 15.1953C58.582 14.9023 58.8809 14.6895 59.2285 14.5566C59.5762 14.4199 59.9629 14.3516 60.3887 14.3516C60.7324 14.3516 61.0488 14.3945 61.3379 14.4805C61.6309 14.5664 61.8926 14.7012 62.123 14.8848C62.3574 15.0645 62.5566 15.2988 62.7207 15.5879C62.8848 15.873 63.0098 16.2168 63.0957 16.6191C63.1855 17.0176 63.2305 17.4785 63.2305 18.002ZM61.6836 19.6484V17.7852C61.6836 17.457 61.6641 17.1719 61.625 16.9297C61.5898 16.6836 61.5371 16.4746 61.4668 16.3027C61.3965 16.1309 61.3086 15.9922 61.2031 15.8867C61.0977 15.7773 60.9766 15.6973 60.8398 15.6465C60.7031 15.5957 60.5527 15.5703 60.3887 15.5703C60.1855 15.5703 60.0039 15.6113 59.8438 15.6934C59.6836 15.7715 59.5488 15.8965 59.4395 16.0684C59.3301 16.2402 59.2461 16.4688 59.1875 16.7539C59.1328 17.0352 59.1055 17.3789 59.1055 17.7852V19.6484C59.1055 19.9766 59.123 20.2637 59.1582 20.5098C59.1973 20.7559 59.252 20.9668 59.3223 21.1426C59.3965 21.3184 59.4844 21.4629 59.5859 21.5762C59.6914 21.6855 59.8125 21.7676 59.9492 21.8223C60.0859 21.873 60.2363 21.8984 60.4004 21.8984C60.6074 21.8984 60.7891 21.8574 60.9453 21.7754C61.1055 21.6934 61.2402 21.5645 61.3496 21.3887C61.459 21.209 61.541 20.9766 61.5957 20.6914C61.6543 20.4023 61.6836 20.0547 61.6836 19.6484ZM66.0664 13.9941V23H64.5195V13.9941H66.0664ZM70.0391 16.6602L67.2793 19.7598L65.7852 21.2773L65.293 20.0762L66.4473 18.623L68.1699 16.6602H70.0391ZM68.457 23L66.4941 20.0469L67.5254 19.0449L70.25 23H68.457ZM73.3438 21.8984C73.5625 21.8984 73.7578 21.8555 73.9297 21.7695C74.1016 21.6836 74.2383 21.5625 74.3398 21.4062C74.4453 21.25 74.502 21.0684 74.5098 20.8613H75.9688C75.9609 21.291 75.8398 21.6758 75.6055 22.0156C75.3711 22.3555 75.0586 22.625 74.668 22.8242C74.2812 23.0195 73.8477 23.1172 73.3672 23.1172C72.8789 23.1172 72.4531 23.0352 72.0898 22.8711C71.7266 22.707 71.4238 22.4785 71.1816 22.1855C70.9434 21.8926 70.7637 21.5527 70.6426 21.166C70.5254 20.7793 70.4668 20.3652 70.4668 19.9238V19.7363C70.4668 19.2949 70.5254 18.8809 70.6426 18.4941C70.7637 18.1074 70.9434 17.7676 71.1816 17.4746C71.4238 17.1816 71.7266 16.9531 72.0898 16.7891C72.4531 16.625 72.877 16.543 73.3613 16.543C73.873 16.543 74.3223 16.6426 74.709 16.8418C75.0996 17.041 75.4043 17.3223 75.623 17.6855C75.8457 18.0488 75.9609 18.4766 75.9688 18.9688H74.5098C74.502 18.7422 74.4512 18.5391 74.3574 18.3594C74.2637 18.1797 74.1309 18.0352 73.959 17.9258C73.7871 17.8164 73.5781 17.7617 73.332 17.7617C73.0703 17.7617 72.8516 17.8164 72.6758 17.9258C72.5039 18.0352 72.3691 18.1855 72.2715 18.377C72.1777 18.5645 72.1113 18.7754 72.0723 19.0098C72.0371 19.2402 72.0195 19.4824 72.0195 19.7363V19.9238C72.0195 20.1816 72.0371 20.4277 72.0723 20.6621C72.1113 20.8965 72.1777 21.1074 72.2715 21.2949C72.3691 21.4785 72.5039 21.625 72.6758 21.7344C72.8516 21.8438 73.0742 21.8984 73.3438 21.8984ZM80.4922 21.6523V18.7285C80.4922 18.5137 80.4551 18.3281 80.3809 18.1719C80.3066 18.0156 80.1934 17.8945 80.041 17.8086C79.8887 17.7227 79.6953 17.6797 79.4609 17.6797C79.2539 17.6797 79.0723 17.7148 78.916 17.7852C78.7637 17.8555 78.6465 17.9551 78.5645 18.084C78.4824 18.209 78.4414 18.3535 78.4414 18.5176H76.8887C76.8887 18.2559 76.9512 18.0078 77.0762 17.7734C77.2012 17.5352 77.3789 17.3242 77.6094 17.1406C77.8438 16.9531 78.123 16.8066 78.4473 16.7012C78.7754 16.5957 79.1426 16.543 79.5488 16.543C80.0293 16.543 80.457 16.625 80.832 16.7891C81.2109 16.9492 81.5078 17.1914 81.7227 17.5156C81.9414 17.8398 82.0508 18.248 82.0508 18.7402V21.5059C82.0508 21.8223 82.0703 22.0938 82.1094 22.3203C82.1523 22.543 82.2148 22.7363 82.2969 22.9004V23H80.7207C80.6465 22.8398 80.5898 22.6367 80.5508 22.3906C80.5117 22.1406 80.4922 21.8945 80.4922 21.6523ZM80.709 19.1387L80.7207 20.0586H79.7422C79.5 20.0586 79.2871 20.084 79.1035 20.1348C78.9199 20.1816 78.7695 20.252 78.6523 20.3457C78.5352 20.4355 78.4473 20.5449 78.3887 20.6738C78.3301 20.7988 78.3008 20.9414 78.3008 21.1016C78.3008 21.2578 78.3359 21.3984 78.4062 21.5234C78.4805 21.6484 78.5859 21.748 78.7227 21.8223C78.8633 21.8926 79.0273 21.9277 79.2148 21.9277C79.4883 21.9277 79.7266 21.873 79.9297 21.7637C80.1328 21.6504 80.291 21.5137 80.4043 21.3535C80.5176 21.1934 80.5781 21.041 80.5859 20.8965L81.0312 21.5645C80.9766 21.7246 80.8945 21.8945 80.7852 22.0742C80.6758 22.2539 80.5352 22.4219 80.3633 22.5781C80.1914 22.7344 79.9844 22.8633 79.7422 22.9648C79.5 23.0664 79.2188 23.1172 78.8984 23.1172C78.4883 23.1172 78.1211 23.0352 77.7969 22.8711C77.4727 22.707 77.2168 22.4824 77.0293 22.1973C76.8418 21.9121 76.748 21.5879 76.748 21.2246C76.748 20.8887 76.8105 20.5918 76.9355 20.334C77.0605 20.0762 77.2461 19.8594 77.4922 19.6836C77.7383 19.5039 78.043 19.3691 78.4062 19.2793C78.7734 19.1855 79.1934 19.1387 79.666 19.1387H80.709ZM85.0859 14V23H83.5332V14H85.0859Z" fill="#373737"/>
<defs>
<clipPath id="clip0_369_1312">
<rect width="73" height="55" fill="white" transform="translate(12 30)"/>
</clipPath>
</defs>
</svg>
