<svg width="94" height="94" viewBox="0 0 94 94" fill="none" xmlns="http://www.w3.org/2000/svg">
<rect width="94" height="94" rx="10" fill="#B8E1FF"/>
<g clip-path="url(#clip0_226_1326)">
<path d="M47.353 62.04C31.56 62.04 19.8879 54.3038 18.6096 53.4246C16.646 52.0659 15.3167 50.0315 14.887 47.6816C14.4573 45.3308 14.9587 42.9495 16.3186 40.9877C17.9862 38.5652 20.7481 37.1142 23.694 37.1142C25.5042 37.1142 27.2435 37.6564 28.7469 38.6781C29.0635 38.8923 36.9098 44.1047 47.2094 44.1047C53.2751 44.1047 58.9927 42.2854 64.2 38.6987C65.7034 37.6663 67.4526 37.1142 69.2735 37.1142C72.2194 37.1142 74.9813 38.5553 76.6489 40.9778C78.0096 42.9397 78.5102 45.3209 78.0805 47.6717C77.6508 50.0225 76.3214 52.0668 74.357 53.4156C66.0613 59.138 56.9789 62.04 47.353 62.04Z" fill="#F4A360"/>
<path d="M47.353 64.1336C31.5394 64.1336 19.6394 56.6582 17.4139 55.1597C14.9911 53.4873 13.3585 50.9662 12.823 48.0643C12.2865 45.1569 12.9127 42.2209 14.5892 39.7975C16.6479 36.8059 20.0512 35.0197 23.694 35.0197C25.9222 35.0197 28.0724 35.674 29.9122 36.9116C29.9705 36.9547 37.4552 41.9906 47.2095 41.9906C52.8338 41.9906 58.1496 40.2949 63.0088 36.9502C64.8611 35.674 67.0274 35 69.2745 35C72.9173 35 76.3206 36.7862 78.3784 39.7769C80.0522 42.2119 80.6801 45.1488 80.1446 48.0446C79.6091 50.9465 77.9765 53.4676 75.5483 55.1427C66.8947 61.1088 57.4086 64.1336 47.353 64.1336ZM23.694 39.2078C21.4496 39.2078 19.3363 40.3128 18.0401 42.1635C15.8935 45.2698 16.6793 49.5403 19.7901 51.6859C20.2736 52.0211 31.8327 59.9357 47.3431 59.9357C56.5188 59.9357 65.2038 57.1601 73.1559 51.6859C74.662 50.6526 75.6756 49.0922 76.0075 47.2944C76.3394 45.4948 75.9492 43.6728 74.9087 42.1653C73.6295 40.3128 71.5197 39.2069 69.2628 39.2069C67.8661 39.2069 66.5233 39.6245 65.3796 40.415C59.8118 44.2508 53.695 46.1965 47.1996 46.1965C36.5636 46.1965 28.4401 40.9931 27.5485 40.3998C26.4174 39.6218 25.0826 39.2078 23.694 39.2078Z" fill="#4C2F1B"/>
<path d="M48.1612 71.1663C34.26 71.1663 21.5357 65.5864 14.2528 60.3641C12.3099 58.974 11.0307 56.91 10.6414 54.5493C10.253 52.1887 10.8055 49.828 12.2067 47.8859C13.8841 45.5557 16.6048 44.1558 19.4798 44.1558C21.3519 44.1558 23.1522 44.7285 24.6762 45.8219C24.7991 45.9035 27.8472 48.0598 32.5835 50.0324C37.8822 52.2398 43.1092 53.3645 48.1208 53.3645C55.3831 53.3645 62.0122 50.9519 67.8114 46.1903C69.4072 44.8818 71.4228 44.1558 73.4887 44.1558C76.1788 44.1558 78.7058 45.3514 80.4137 47.4262C81.9279 49.2652 82.6437 51.5954 82.4087 53.9767C82.1737 56.3579 81.0282 58.4936 79.1866 60.0163C70.1535 67.4164 59.7194 71.1663 48.1612 71.1663Z" fill="#FF6C4A"/>
<path d="M48.1612 73.2813C33.7774 73.2813 20.5822 67.4935 13.0293 62.0776C10.6306 60.3533 9.04647 57.8017 8.56925 54.8917C8.09293 51.9906 8.78005 49.068 10.5023 46.6626C12.5673 43.7821 15.9239 42.0622 19.4798 42.0622C21.795 42.0622 24.0115 42.7703 25.8899 44.1092C25.915 44.1271 28.8303 46.1956 33.3899 48.101C38.4375 50.2036 43.3935 51.2701 48.1208 51.2701C54.8772 51.2701 61.0514 49.0152 66.4721 44.5672C68.4366 42.945 70.9277 42.0515 73.4887 42.0515C76.8202 42.0515 79.932 43.5294 82.0247 46.106C83.8968 48.3753 84.7696 51.2459 84.4862 54.1918C84.2036 57.1287 82.789 59.777 80.5052 61.6492C71.0981 69.3675 60.2163 73.2813 48.1612 73.2813ZM19.4798 46.2593C17.2794 46.2593 15.1983 47.324 13.9119 49.1066C11.707 52.1735 12.4094 56.4592 15.4754 58.6612C22.4911 63.6944 34.7615 69.0727 48.1612 69.0727C59.2233 69.0727 69.2108 65.477 77.8464 58.3843C79.2583 57.2255 80.1356 55.5863 80.3141 53.7687C80.4935 51.9485 79.9526 50.1677 78.7892 48.7535C77.4741 47.1618 75.5419 46.2494 73.4878 46.2494C71.9045 46.2494 70.3598 46.8042 69.1381 47.8124C62.9567 52.8922 55.8855 55.4671 48.1199 55.4671C42.832 55.4671 37.3332 54.2912 31.7753 51.9718C26.7035 49.8531 23.4948 47.5579 23.4634 47.5346C22.2955 46.7002 20.9177 46.2593 19.4798 46.2593Z" fill="#4C2F1B"/>
<path d="M30.3526 59.7609C28.1235 59.7609 27.3152 57.6144 26.7725 56.1939C26.2101 54.7017 25.8522 53.9865 25.3714 53.9865C24.2053 53.9865 23.2643 53.0464 23.2643 51.8813C23.2643 50.7162 24.2053 49.7761 25.3714 49.7761C28.7774 49.7761 30.0045 52.8322 30.6701 54.5798C31.5698 53.3233 33.0329 51.4726 35.5392 51.4726C38.0652 51.4726 39.6099 53.3224 40.6432 54.5386C40.8271 54.7635 41.0729 55.0593 41.2774 55.2744C41.6246 54.9679 42.0955 54.4364 42.4023 54.0896C43.4967 52.8528 44.7444 51.4529 46.4837 51.4529C48.2939 51.4529 49.6655 52.9854 50.872 54.345C51.0155 54.5081 51.1788 54.6918 51.3528 54.8765C51.3833 54.8352 51.4039 54.8048 51.4246 54.7635C52.3243 53.4452 53.6958 51.4529 56.0272 51.4529C57.858 51.4529 59.1372 52.9137 60.2513 54.2124C60.3643 54.3351 60.4971 54.4884 60.6298 54.6417C60.6298 54.621 60.6406 54.6112 60.6406 54.6004C61.2335 52.7712 62.3279 49.3781 65.7034 49.3781C66.8695 49.3781 67.8105 50.3183 67.8105 51.4834C67.8105 52.6485 66.8695 53.5886 65.7034 53.5886C65.3248 53.7929 64.8647 55.2134 64.6503 55.8982C64.139 57.4917 63.433 59.6793 61.1931 59.6793C59.4027 59.6793 58.1549 58.249 57.0606 56.9808C56.7538 56.6232 56.273 56.072 55.9456 55.7852C55.6181 56.0819 55.158 56.7558 54.8817 57.1547C54.0735 58.3395 53.1531 59.6784 51.4963 59.6784C49.9516 59.6784 48.868 58.4524 47.7118 57.1547C47.3745 56.7765 46.8731 56.2136 46.4945 55.8775C46.1877 56.1634 45.8092 56.6026 45.5428 56.8992C44.3874 58.2068 43.0679 59.6784 41.2057 59.6784C39.426 59.6784 38.3002 58.3395 37.3906 57.2559C36.7457 56.4897 36.081 55.6929 35.5185 55.6929C35.0682 55.6929 34.5775 56.3364 33.9227 57.2461C33.1961 58.3 32.1529 59.7609 30.3526 59.7609Z" fill="#F9AF38"/>
<path d="M47.118 80.8957C32.4193 80.8957 20.8298 75.0908 18.7433 73.6604C16.7788 72.3009 15.4387 70.5837 14.8762 68.6936C14.2322 66.5373 14.6412 64.2375 16.0316 62.2246C17.6992 59.8021 20.4611 58.3511 23.4069 58.3511C25.2171 58.3511 26.9565 58.8925 28.4608 59.9142C28.7774 60.1283 36.6237 65.3408 46.9242 65.3408C52.9899 65.3408 58.7075 63.5215 63.9147 59.9348C65.4182 58.9032 67.1674 58.3511 68.9883 58.3511C71.935 58.3511 74.6961 59.7914 76.3636 62.2139C77.7451 64.2169 78.2465 66.384 77.8168 68.4686C77.397 70.4923 76.1286 72.2901 74.1345 73.6604C64.8853 80.0165 55.689 80.8957 47.118 80.8957Z" fill="#F4A360"/>
<path d="M47.1081 83C29.7597 83 17.6453 75.4538 17.5251 75.3776C15.174 73.759 13.5513 71.6502 12.8508 69.2887C12.0264 66.4969 12.5377 63.5618 14.2914 61.0246C16.35 58.033 19.7533 56.2468 23.3962 56.2468C25.6342 56.2468 27.7835 56.9073 29.6107 58.1567C29.6753 58.2033 37.2283 63.2365 46.9116 63.2365C52.536 63.2365 57.8508 61.5408 62.7109 58.1961C64.5633 56.9208 66.7287 56.2459 68.9757 56.2459C72.6186 56.2459 76.0219 58.0321 78.0796 61.0228C79.7956 63.5071 80.411 66.2281 79.8584 68.8907C79.3247 71.4629 77.7522 73.7088 75.3114 75.3866C65.6083 82.0778 56.0218 83 47.1081 83ZM23.3971 60.4447C21.15 60.4447 19.033 61.5498 17.7341 63.4005C15.7096 66.3347 16.5456 69.5988 19.913 71.9227C20.0144 71.9917 31.211 78.7922 47.0973 78.7922C55.3266 78.7922 64.1498 77.9596 72.9209 71.9227C74.496 70.8409 75.4792 69.4607 75.7608 67.9318C76.0335 66.4521 75.6361 64.8873 74.6117 63.4032C73.3317 61.5507 71.2219 60.4447 68.9659 60.4447C67.5701 60.4447 66.2273 60.8624 65.0827 61.6528C59.5148 65.4887 53.3971 67.4344 46.9027 67.4344C36.2586 67.4344 28.1423 62.2309 27.2516 61.6376C26.1204 60.8588 24.7848 60.4447 23.3971 60.4447Z" fill="#4C2F1B"/>
<path d="M30.3221 74.2224C30.0252 74.2224 29.7282 74.0996 29.5237 73.8549C29.1461 73.4158 29.1963 72.7508 29.6466 72.3726C31.9385 70.4206 31.2119 67.6405 31.1805 67.5285C31.0271 66.9656 31.3546 66.3939 31.917 66.2307C32.4794 66.0775 33.0526 66.3947 33.2159 66.9558C33.267 67.1297 34.3614 71.1358 31.0164 73.9768C30.8029 74.1408 30.567 74.2224 30.3221 74.2224ZM47.4857 76.8797C47.3018 76.8797 47.1179 76.8286 46.9439 76.7363C46.4425 76.4396 46.2792 75.7961 46.5761 75.2961C48.1612 72.6387 46.412 70.6662 46.4021 70.6455C46.0137 70.2163 46.0442 69.5521 46.4739 69.1641C46.9036 68.7751 47.5683 68.8065 47.9567 69.2358C48.9281 70.3086 50.2791 73.1908 48.3863 76.3688C48.1917 76.6951 47.8436 76.8797 47.4857 76.8797Z" fill="#4C2F1B"/>
<path d="M65.141 73.9571C64.9768 73.9571 64.8136 73.9159 64.6602 73.8442C64.139 73.5789 63.9444 72.9453 64.2099 72.4236C65.4989 69.9304 63.3299 67.9775 63.2384 67.8959C62.8087 67.5079 62.7576 66.8536 63.1361 66.4136C63.5138 65.9744 64.1794 65.9332 64.6189 66.3114C65.8469 67.3743 67.7289 70.2154 66.082 73.3934C65.8882 73.7519 65.5195 73.9571 65.141 73.9571Z" fill="#4C2F1B"/>
<path d="M86.4175 54.8352C86.1519 54.8352 85.8855 54.7635 85.6505 54.6309L83.3389 53.3027C82.6329 52.8931 82.3665 52.005 82.7352 51.279L83.9121 48.9694C84.1776 48.4487 84.6997 48.1315 85.2827 48.1315C85.9582 48.1315 86.5511 48.5608 86.7458 49.2043L87.8814 52.8429C88.0249 53.3134 87.9433 53.8135 87.6562 54.2124C87.3683 54.6004 86.9081 54.8352 86.4175 54.8352Z" fill="#FF6C4A"/>
<path d="M85.2818 49.1738C85.4765 49.1738 85.6702 49.2858 85.742 49.5108L86.8776 53.1485C86.9799 53.4855 86.7242 53.7822 86.4175 53.7822C86.3358 53.7822 86.2542 53.7616 86.1726 53.7212L83.8609 52.393C83.6358 52.2604 83.5542 51.9844 83.6663 51.7594L84.853 49.4391C84.9445 49.2652 85.1078 49.1738 85.2818 49.1738ZM85.2818 47.0686C84.2996 47.0686 83.4205 47.6099 82.9702 48.4783L81.7942 50.7879C81.1708 52.0139 81.6202 53.516 82.8168 54.2007L85.1284 55.5289C85.5267 55.7539 85.9671 55.8767 86.4175 55.8767C87.2364 55.8767 88.024 55.4778 88.5039 54.8137C88.9847 54.1595 89.1274 53.291 88.8825 52.514L87.7468 48.8753C87.4096 47.8035 86.4175 47.0686 85.2818 47.0686Z" fill="#4C2F1B"/>
<path d="M7.59331 51.9127C7.10264 51.9127 6.64247 51.6778 6.35542 51.279C6.06927 50.8802 5.98764 50.39 6.13027 49.9096L7.2659 46.2709C7.47042 45.6274 8.05349 45.1981 8.73881 45.1981C9.32188 45.1981 9.84394 45.5145 10.1095 46.0361L11.2864 48.3457C11.6541 49.0707 11.3886 49.9607 10.6827 50.3694L8.37103 51.6976C8.12525 51.841 7.85973 51.9127 7.59331 51.9127Z" fill="#FF6C4A"/>
<path d="M8.72891 46.2611C8.90293 46.2611 9.06619 46.3426 9.15858 46.5263L10.3346 48.8359C10.4467 49.0609 10.3651 49.3468 10.1399 49.4695L7.82829 50.7978C7.74667 50.839 7.66504 50.8587 7.58341 50.8587C7.27663 50.8587 7.02097 50.562 7.12323 50.2251L8.25887 46.5864C8.3396 46.3731 8.53425 46.2611 8.72891 46.2611ZM8.72891 44.1558C7.59327 44.1558 6.5904 44.8818 6.25312 45.9743L5.11749 49.6129C4.8726 50.3998 5.01523 51.2584 5.49603 51.9127C5.9867 52.5777 6.76442 52.9756 7.58251 52.9756C8.03282 52.9756 8.48223 52.8537 8.87153 52.6278L11.1832 51.2996C12.3798 50.614 12.8301 49.1128 12.1959 47.8859L11.0199 45.5763C10.5902 44.6972 9.71115 44.1558 8.72891 44.1558Z" fill="#4C2F1B"/>
</g>
<path d="M26.6152 14.4688V23H25.0039V14.4688H26.6152ZM31.7363 14.4688L28.3145 18.6289L26.3574 20.7207L26.0703 19.1562L27.4297 17.3926L29.7617 14.4688H31.7363ZM29.9434 23L27.2891 19.0039L28.4434 17.9609L31.8594 23H29.9434ZM34.1152 22.2969L35.8145 16.6602H37.4727L34.9297 23.9609C34.8711 24.1172 34.7949 24.2871 34.7012 24.4707C34.6113 24.6543 34.4902 24.8281 34.3379 24.9922C34.1855 25.1602 33.9941 25.2969 33.7637 25.4023C33.5371 25.5078 33.2617 25.5605 32.9375 25.5605C32.7969 25.5605 32.6719 25.5508 32.5625 25.5312C32.4531 25.5117 32.3379 25.4863 32.2168 25.4551V24.2949C32.2559 24.2988 32.3008 24.3008 32.3516 24.3008C32.4062 24.3047 32.4531 24.3066 32.4922 24.3066C32.7188 24.3066 32.9062 24.2793 33.0547 24.2246C33.2031 24.1738 33.3223 24.0898 33.4121 23.9727C33.5059 23.8594 33.584 23.7109 33.6465 23.5273L34.1152 22.2969ZM33.2773 16.6602L34.7129 21.3301L34.9648 22.9648L33.8984 23.1582L31.6074 16.6602H33.2773ZM40.7422 21.8984C40.9609 21.8984 41.1562 21.8555 41.3281 21.7695C41.5 21.6836 41.6367 21.5625 41.7383 21.4062C41.8438 21.25 41.9004 21.0684 41.9082 20.8613H43.3672C43.3594 21.291 43.2383 21.6758 43.0039 22.0156C42.7695 22.3555 42.457 22.625 42.0664 22.8242C41.6797 23.0195 41.2461 23.1172 40.7656 23.1172C40.2773 23.1172 39.8516 23.0352 39.4883 22.8711C39.125 22.707 38.8223 22.4785 38.5801 22.1855C38.3418 21.8926 38.1621 21.5527 38.041 21.166C37.9238 20.7793 37.8652 20.3652 37.8652 19.9238V19.7363C37.8652 19.2949 37.9238 18.8809 38.041 18.4941C38.1621 18.1074 38.3418 17.7676 38.5801 17.4746C38.8223 17.1816 39.125 16.9531 39.4883 16.7891C39.8516 16.625 40.2754 16.543 40.7598 16.543C41.2715 16.543 41.7207 16.6426 42.1074 16.8418C42.498 17.041 42.8027 17.3223 43.0215 17.6855C43.2441 18.0488 43.3594 18.4766 43.3672 18.9688H41.9082C41.9004 18.7422 41.8496 18.5391 41.7559 18.3594C41.6621 18.1797 41.5293 18.0352 41.3574 17.9258C41.1855 17.8164 40.9766 17.7617 40.7305 17.7617C40.4688 17.7617 40.25 17.8164 40.0742 17.9258C39.9023 18.0352 39.7676 18.1855 39.6699 18.377C39.5762 18.5645 39.5098 18.7754 39.4707 19.0098C39.4355 19.2402 39.418 19.4824 39.418 19.7363V19.9238C39.418 20.1816 39.4355 20.4277 39.4707 20.6621C39.5098 20.8965 39.5762 21.1074 39.6699 21.2949C39.7676 21.4785 39.9023 21.625 40.0742 21.7344C40.25 21.8438 40.4727 21.8984 40.7422 21.8984ZM45.9453 13.9941V23H44.3984V13.9941H45.9453ZM49.918 16.6602L47.1582 19.7598L45.6641 21.2773L45.1719 20.0762L46.3262 18.623L48.0488 16.6602H49.918ZM48.3359 23L46.373 20.0469L47.4043 19.0449L50.1289 23H48.3359ZM52.3789 14V23H50.8262V14H52.3789ZM55.4961 16.6602V23H53.9434V16.6602H55.4961ZM53.8379 15.002C53.8379 14.7715 53.916 14.5801 54.0723 14.4277C54.2324 14.2754 54.4473 14.1992 54.7168 14.1992C54.9863 14.1992 55.1992 14.2754 55.3555 14.4277C55.5156 14.5801 55.5957 14.7715 55.5957 15.002C55.5957 15.2285 55.5156 15.418 55.3555 15.5703C55.1992 15.7227 54.9863 15.7988 54.7168 15.7988C54.4473 15.7988 54.2324 15.7227 54.0723 15.5703C53.916 15.418 53.8379 15.2285 53.8379 15.002ZM58.4902 18.0137V23H56.9434V16.6602H58.3965L58.4902 18.0137ZM58.2441 19.6016H57.7871C57.791 19.1406 57.8535 18.7227 57.9746 18.3477C58.0957 17.9727 58.2656 17.6504 58.4844 17.3809C58.707 17.1113 58.9707 16.9043 59.2754 16.7598C59.5801 16.6152 59.9199 16.543 60.2949 16.543C60.5996 16.543 60.875 16.5859 61.1211 16.6719C61.3672 16.7578 61.5781 16.8945 61.7539 17.082C61.9336 17.2695 62.0703 17.5156 62.1641 17.8203C62.2617 18.1211 62.3105 18.4922 62.3105 18.9336V23H60.752V18.9219C60.752 18.6328 60.709 18.4043 60.623 18.2363C60.541 18.0684 60.4199 17.9492 60.2598 17.8789C60.1035 17.8086 59.9102 17.7734 59.6797 17.7734C59.4414 17.7734 59.2324 17.8223 59.0527 17.9199C58.877 18.0137 58.7285 18.1445 58.6074 18.3125C58.4902 18.4805 58.4004 18.6738 58.3379 18.8926C58.2754 19.1113 58.2441 19.3477 58.2441 19.6016ZM67.707 16.6602H69.1133V22.8066C69.1133 23.3809 68.9883 23.8672 68.7383 24.2656C68.4922 24.668 68.1465 24.9727 67.7012 25.1797C67.2559 25.3906 66.7383 25.4961 66.1484 25.4961C65.8945 25.4961 65.6191 25.4609 65.3223 25.3906C65.0293 25.3203 64.7461 25.209 64.4727 25.0566C64.2031 24.9082 63.9785 24.7148 63.7988 24.4766L64.4961 23.5625C64.707 23.8086 64.9453 23.9941 65.2109 24.1191C65.4766 24.248 65.7637 24.3125 66.0723 24.3125C66.3848 24.3125 66.6504 24.2539 66.8691 24.1367C67.0918 24.0234 67.2617 23.8555 67.3789 23.6328C67.5 23.4141 67.5605 23.1445 67.5605 22.8242V18.1074L67.707 16.6602ZM63.4238 19.9062V19.7832C63.4238 19.2988 63.4824 18.8594 63.5996 18.4648C63.7168 18.0664 63.8848 17.7246 64.1035 17.4395C64.3262 17.1543 64.5938 16.9336 64.9062 16.7773C65.2227 16.6211 65.5781 16.543 65.9727 16.543C66.3906 16.543 66.7422 16.6191 67.0273 16.7715C67.3164 16.9238 67.5547 17.1406 67.7422 17.4219C67.9336 17.7031 68.082 18.0371 68.1875 18.4238C68.2969 18.8066 68.3809 19.2285 68.4395 19.6895V20.0234C68.3848 20.4727 68.2969 20.8848 68.1758 21.2598C68.0586 21.6348 67.9023 21.9629 67.707 22.2441C67.5117 22.5215 67.2695 22.7363 66.9805 22.8887C66.6914 23.041 66.3516 23.1172 65.9609 23.1172C65.5703 23.1172 65.2188 23.0371 64.9062 22.877C64.5938 22.7168 64.3262 22.4922 64.1035 22.2031C63.8848 21.9141 63.7168 21.5742 63.5996 21.1836C63.4824 20.793 63.4238 20.3672 63.4238 19.9062ZM64.9707 19.7832V19.9062C64.9707 20.1797 64.998 20.4355 65.0527 20.6738C65.1074 20.9121 65.1914 21.123 65.3047 21.3066C65.418 21.4863 65.5605 21.627 65.7324 21.7285C65.9043 21.8301 66.1094 21.8809 66.3477 21.8809C66.668 21.8809 66.9297 21.8145 67.1328 21.6816C67.3398 21.5449 67.4961 21.3594 67.6016 21.125C67.7109 20.8867 67.7812 20.6191 67.8125 20.3223V19.4023C67.793 19.168 67.75 18.9512 67.6836 18.752C67.6211 18.5527 67.5332 18.3809 67.4199 18.2363C67.3066 18.0918 67.1621 17.9785 66.9863 17.8965C66.8105 17.8145 66.6016 17.7734 66.3594 17.7734C66.125 17.7734 65.9199 17.8262 65.7441 17.9316C65.5684 18.0332 65.4238 18.1758 65.3105 18.3594C65.1973 18.543 65.1113 18.7559 65.0527 18.998C64.998 19.2402 64.9707 19.502 64.9707 19.7832Z" fill="#373737"/>
<defs>
<clipPath id="clip0_226_1326">
<rect width="84" height="48" fill="white" transform="translate(5 35)"/>
</clipPath>
</defs>
</svg>
