<svg width="383" height="820" viewBox="0 0 383 820" fill="none" xmlns="http://www.w3.org/2000/svg">
<g filter="url(#filter0_d_407_1312)">
<rect width="375" height="812" transform="translate(4)" fill="#26D86E"/>
<path d="M226.936 407.365C226.936 420.046 219.949 438.843 203.085 446.187C198.847 448.033 196.562 446.095 191.5 446.218C186.977 446.329 185.544 447.863 181.278 446.25C163.56 439.551 156.064 420.948 156.064 407.365C156.064 389.607 171.056 380.57 191.5 392.628C210.581 381.24 226.936 389.607 226.936 407.365Z" fill="#FF542F"/>
<path fill-rule="evenodd" clip-rule="evenodd" d="M191.495 389.146C181.371 383.613 171.988 382.706 164.791 386.099C157.141 389.706 153 397.671 153 407.365C153 421.718 160.881 441.765 180.178 449.061C182.844 450.069 184.796 450.121 186.708 449.864C187.364 449.776 187.901 449.68 188.405 449.589C189.373 449.415 190.223 449.262 191.576 449.229C193.184 449.19 194.337 449.379 195.648 449.595C196.126 449.674 196.626 449.756 197.177 449.831C199.258 450.117 201.514 450.166 204.326 448.941C222.681 440.947 230 420.763 230 407.365C230 397.535 225.408 389.789 217.64 386.324C210.371 383.081 201.057 383.913 191.495 389.146ZM203.085 446.187C219.949 438.843 226.936 420.046 226.936 407.365C226.936 389.607 210.581 381.24 191.5 392.628C171.056 380.57 156.064 389.607 156.064 407.365C156.064 420.948 163.56 439.551 181.278 446.249C184.048 447.297 185.624 447.018 187.626 446.663C188.708 446.471 189.914 446.257 191.5 446.218C193.425 446.171 194.948 446.422 196.33 446.65C198.582 447.021 200.458 447.331 203.085 446.187Z" fill="#3A3A3A"/>
<path fill-rule="evenodd" clip-rule="evenodd" d="M196.463 437.994C213.327 430.65 218.952 411.822 218.952 399.141C218.952 395.427 218.236 392.124 216.931 389.327C223.081 392.335 226.936 398.743 226.936 407.365C226.936 420.046 219.949 438.843 203.085 446.187C200.458 447.331 198.582 447.021 196.33 446.65C194.948 446.422 193.425 446.171 191.5 446.218C189.914 446.257 188.707 446.471 187.626 446.663C185.623 447.018 184.048 447.297 181.278 446.25C174.797 443.799 169.684 439.757 165.805 434.95C167.672 436.129 169.711 437.155 171.931 437.994C174.788 439.074 176.986 438.757 179.484 438.397C180.716 438.219 182.022 438.031 183.516 437.994C185.391 437.948 187.073 438.19 188.662 438.418C191.362 438.806 193.796 439.156 196.463 437.994Z" fill="#ED4A27"/>
<path d="M207.406 365.581C207.406 365.581 210.191 377.932 206.86 384.53C202.846 392.481 191.207 392.684 191.207 392.684C191.207 392.684 187.878 383.178 192.697 375.115C196.403 368.913 207.406 365.581 207.406 365.581Z" fill="#5AF560"/>
<path fill-rule="evenodd" clip-rule="evenodd" d="M210.401 364.953L207.404 365.584L206.48 362.705C207.301 362.457 208.193 362.558 208.938 362.986C209.684 363.413 210.215 364.127 210.401 364.953ZM204.496 366.644C206.219 365.943 207.404 365.584 207.404 365.584C207.404 365.584 207.67 366.763 207.939 368.588C208.541 372.668 209.159 379.972 206.858 384.529C202.845 392.479 191.209 392.682 191.209 392.682C191.209 392.682 187.88 383.178 192.698 375.116C195.188 370.95 200.969 368.08 204.496 366.644ZM191.209 392.682C188.307 393.643 188.306 393.642 188.306 393.641L188.303 393.633L188.299 393.62L188.286 393.583C188.276 393.554 188.264 393.515 188.248 393.468C188.217 393.373 188.176 393.243 188.128 393.079C188.031 392.753 187.905 392.293 187.772 391.722C187.507 390.584 187.212 388.984 187.084 387.102C186.831 383.373 187.219 378.311 190.047 373.579C192.364 369.704 196.716 366.998 200.031 365.34C201.756 364.476 203.35 363.824 204.512 363.388C205.095 363.168 205.575 363.002 205.914 362.888C206.084 362.831 206.219 362.787 206.315 362.757C206.362 362.742 206.401 362.73 206.428 362.721L206.462 362.711L206.477 362.706L206.48 362.705C206.481 362.705 206.48 362.705 207.404 365.584C210.401 364.953 210.401 364.952 210.401 364.953L210.402 364.959L210.405 364.97L210.412 365.005L210.439 365.128C210.461 365.233 210.492 365.382 210.53 365.571C210.605 365.949 210.706 366.488 210.817 367.153C211.036 368.479 211.294 370.323 211.442 372.392C211.726 376.362 211.666 381.81 209.611 385.88C207.069 390.915 202.219 393.312 198.462 394.462C196.542 395.05 194.778 395.355 193.496 395.514C192.851 395.594 192.32 395.638 191.94 395.663C191.749 395.675 191.597 395.683 191.486 395.687C191.431 395.689 191.386 395.691 191.352 395.692L191.31 395.693L191.295 395.693L191.289 395.693L191.287 395.693C191.286 395.693 191.285 395.693 191.209 392.682ZM188.307 393.643L191.209 392.682L191.285 395.693C189.947 395.716 188.742 394.887 188.307 393.643Z" fill="#3A3A3A"/>
<path d="M204.795 384.516C207.767 379.544 206.287 369.234 206.287 369.234C197.579 377.701 195.236 387.301 194.678 390.775C194.678 390.775 201.822 389.488 204.795 384.516Z" fill="#4AC84F"/>
<path d="M175.512 379.01C178.441 379.769 188.01 388.16 190.626 393.308C190.844 393.737 192.038 393.1 191.853 392.724C190.407 387.845 185.7 376.299 181.779 372.761C176.508 372.531 175.372 377.917 175.512 379.01Z" fill="#943D31"/>
<path fill-rule="evenodd" clip-rule="evenodd" d="M174.731 381.923C173.522 381.609 172.628 380.605 172.472 379.386C172.368 378.572 172.512 377.609 172.721 376.799C172.953 375.9 173.358 374.831 174.019 373.792C175.403 371.617 177.956 369.579 181.915 369.752C182.634 369.784 183.32 370.064 183.85 370.542C185.154 371.718 186.363 373.395 187.428 375.132C188.52 376.913 189.573 378.945 190.527 380.978C192.394 384.959 193.966 389.127 194.753 391.742C195.344 393.342 194.413 394.62 194.129 394.957C193.703 395.461 193.195 395.793 192.789 395.998C192.391 396.199 191.781 396.433 191.052 396.461C190.352 396.487 188.715 396.287 187.885 394.654C186.834 392.586 184.13 389.505 181.093 386.713C179.619 385.359 178.161 384.158 176.928 383.269C176.311 382.824 175.781 382.479 175.357 382.236C174.973 382.017 174.776 381.941 174.736 381.925C174.727 381.922 174.725 381.921 174.731 381.923ZM191.853 392.724C191.851 392.719 191.85 392.713 191.848 392.708C191.656 392.06 191.406 391.296 191.11 390.45C190.733 389.375 190.279 388.168 189.767 386.897C187.641 381.612 184.518 375.233 181.779 372.761C176.508 372.531 175.372 377.917 175.512 379.01C177.623 379.558 183.186 384.071 187.107 388.477C187.936 389.409 188.693 390.337 189.327 391.221C189.799 391.878 190.203 392.512 190.521 393.106C190.557 393.174 190.592 393.241 190.626 393.308C190.844 393.737 192.038 393.1 191.853 392.724ZM188.886 393.483C188.933 393.662 189.001 393.846 189.095 394.036C189.02 393.885 188.959 393.728 188.911 393.567C188.903 393.539 188.895 393.511 188.886 393.483Z" fill="#3A3A3A"/>
<path d="M182.796 372.885C183.734 373.916 183.012 376.055 181.184 377.663C179.356 379.27 177.113 379.738 176.175 378.706C175.237 377.675 175.959 375.536 177.787 373.929C179.615 372.322 181.858 371.854 182.796 372.885Z" fill="#C26649"/>
<path d="M170.273 418.368C171.245 418.185 172.051 417.878 172.69 417.445C173.329 417.007 173.78 416.476 174.045 415.854C174.313 415.226 174.377 414.536 174.236 413.783L174.234 413.776C174.066 412.88 173.658 412.233 173.011 411.836C172.363 411.433 171.426 411.228 170.2 411.22L169.014 411.212C168.394 411.212 167.931 411.146 167.625 411.012C167.323 410.873 167.143 410.645 167.083 410.327L167.081 410.32C167.04 410.099 167.068 409.895 167.165 409.708C167.266 409.514 167.429 409.348 167.652 409.211C167.874 409.068 168.152 408.966 168.484 408.903C168.827 408.839 169.138 408.83 169.418 408.878C169.697 408.927 169.93 409.023 170.116 409.168C170.307 409.308 170.445 409.491 170.53 409.719L170.561 409.8L173.171 409.309L173.146 409.219C172.967 408.574 172.653 408.034 172.206 407.599C171.757 407.159 171.184 406.856 170.485 406.69C169.79 406.519 168.98 406.52 168.053 406.695C167.203 406.854 166.476 407.145 165.872 407.566C165.266 407.982 164.825 408.494 164.547 409.103C164.269 409.707 164.195 410.37 164.325 411.092L164.327 411.1C164.489 411.965 164.888 412.621 165.524 413.069C166.164 413.516 167.09 413.744 168.3 413.755L169.486 413.763C170.16 413.768 170.649 413.83 170.952 413.948C171.255 414.066 171.436 414.281 171.494 414.593L171.496 414.601C171.539 414.831 171.501 415.053 171.382 415.266C171.269 415.478 171.086 415.661 170.834 415.814C170.582 415.968 170.271 416.079 169.903 416.149C169.529 416.219 169.189 416.23 168.883 416.181C168.578 416.133 168.324 416.037 168.122 415.895C167.92 415.748 167.784 415.564 167.716 415.343L167.696 415.276L165.001 415.783L165.034 415.919C165.204 416.598 165.525 417.149 165.998 417.575C166.474 417.994 167.075 418.276 167.802 418.42C168.528 418.559 169.351 418.542 170.273 418.368ZM175.753 417.028L178.233 416.561L176.908 409.513L178.297 409.251L175.04 406.009L180.905 416.059L182.517 415.755L184.33 404.261L182.474 408.466L183.864 408.204L185.189 415.253L187.669 414.786L185.585 403.707L182.368 404.312L181.117 412.322L180.978 412.348L176.879 405.345L173.669 405.948L175.753 417.028ZM188.277 414.672L191.241 414.115L192.027 405.023L192.841 404.87L192.382 402.429L189.917 402.892L188.277 414.672ZM189.994 411.837L196.458 410.621L195.438 408.706L190.256 409.681L189.994 411.837ZM196.216 413.179L199.18 412.621L193.364 402.244L191.714 402.554L192.173 404.996L196.216 413.179ZM199.772 412.51L202.59 411.98L201.862 408.11L203.19 407.86C203.211 407.857 203.231 407.853 203.252 407.849C203.277 407.844 203.3 407.84 203.321 407.836L205.945 411.349L209.108 410.754L206.09 406.878C206.644 406.498 207.031 405.993 207.252 405.364C207.473 404.734 207.519 404.081 207.392 403.405L207.389 403.39C207.246 402.627 206.962 402.005 206.538 401.523C206.112 401.036 205.56 400.705 204.88 400.531C204.206 400.356 203.413 400.354 202.502 400.525L197.688 401.431L199.772 412.51ZM201.498 406.175L200.906 403.028L202.572 402.714C203.079 402.619 203.508 402.689 203.86 402.925C204.211 403.156 204.43 403.504 204.517 403.97L204.52 403.985C204.611 404.466 204.537 404.875 204.298 405.212C204.059 405.548 203.686 405.764 203.18 405.859L201.498 406.175ZM212.373 410.14L215.19 409.61L213.533 400.796L216.727 400.195L216.301 397.93L207.095 399.661L207.521 401.926L210.715 401.326L212.373 410.14Z" fill="white"/>
<path d="M170.731 431.2L173.387 430.701L173.932 423.579L174.07 423.553L177.195 429.984L179.837 429.488L180.647 417.864L177.745 418.41L177.674 426.023L177.536 426.049L174.321 419.054L172.063 419.478L171.67 427.152L171.532 427.178L168.677 420.115L165.752 420.665L170.731 431.2ZM181.727 429.132L184.69 428.575L185.476 419.484L186.29 419.33L185.831 416.889L183.366 417.352L181.727 429.132ZM183.443 426.297L189.908 425.081L188.888 423.166L183.705 424.141L183.443 426.297ZM189.665 427.639L192.629 427.081L186.814 416.704L185.163 417.015L185.622 419.456L189.665 427.639ZM197.416 426.491C198.389 426.308 199.195 426 199.834 425.567C200.472 425.129 200.924 424.599 201.188 423.977C201.457 423.349 201.521 422.658 201.379 421.906L201.378 421.898C201.209 421.003 200.801 420.356 200.154 419.958C199.506 419.556 198.569 419.35 197.344 419.342L196.158 419.335C195.538 419.335 195.075 419.268 194.769 419.135C194.467 418.996 194.286 418.767 194.226 418.45L194.225 418.442C194.184 418.222 194.212 418.018 194.309 417.83C194.41 417.636 194.572 417.471 194.796 417.333C195.018 417.191 195.295 417.088 195.628 417.026C195.971 416.961 196.282 416.953 196.561 417.001C196.841 417.049 197.074 417.146 197.26 417.291C197.45 417.43 197.588 417.614 197.673 417.841L197.705 417.923L200.315 417.432L200.29 417.341C200.111 416.697 199.797 416.157 199.349 415.722C198.901 415.281 198.327 414.978 197.628 414.813C196.934 414.642 196.123 414.643 195.197 414.817C194.347 414.977 193.62 415.268 193.016 415.689C192.41 416.105 191.969 416.617 191.691 417.226C191.412 417.829 191.338 418.492 191.469 419.215L191.47 419.223C191.633 420.088 192.032 420.744 192.667 421.192C193.308 421.638 194.233 421.867 195.444 421.878L196.629 421.885C197.304 421.891 197.792 421.953 198.095 422.071C198.398 422.189 198.579 422.404 198.638 422.716L198.639 422.723C198.683 422.954 198.645 423.176 198.526 423.389C198.412 423.601 198.229 423.784 197.977 423.937C197.725 424.09 197.415 424.202 197.046 424.271C196.673 424.341 196.333 424.352 196.027 424.304C195.721 424.255 195.467 424.16 195.266 424.018C195.063 423.87 194.928 423.687 194.86 423.466L194.839 423.398L192.144 423.905L192.178 424.042C192.348 424.72 192.669 425.272 193.141 425.697C193.617 426.116 194.219 426.398 194.946 426.542C195.671 426.681 196.495 426.664 197.416 426.491ZM205.484 424.664L208.302 424.134L206.644 415.319L209.838 414.719L209.412 412.454L200.207 414.185L200.633 416.45L203.827 415.849L205.484 424.664ZM212.25 423.391L219.843 421.963L219.417 419.698L214.642 420.596L214.216 418.331L218.707 417.486L218.317 415.413L213.826 416.258L213.41 414.047L218.185 413.149L217.759 410.884L210.166 412.312L212.25 423.391Z" fill="white"/>
</g>
<defs>
<filter id="filter0_d_407_1312" x="0" y="0" width="383" height="820" filterUnits="userSpaceOnUse" color-interpolation-filters="sRGB">
<feFlood flood-opacity="0" result="BackgroundImageFix"/>
<feColorMatrix in="SourceAlpha" type="matrix" values="0 0 0 0 0 0 0 0 0 0 0 0 0 0 0 0 0 0 127 0" result="hardAlpha"/>
<feOffset dy="4"/>
<feGaussianBlur stdDeviation="2"/>
<feComposite in2="hardAlpha" operator="out"/>
<feColorMatrix type="matrix" values="0 0 0 0 0 0 0 0 0 0 0 0 0 0 0 0 0 0 0.25 0"/>
<feBlend mode="normal" in2="BackgroundImageFix" result="effect1_dropShadow_407_1312"/>
<feBlend mode="normal" in="SourceGraphic" in2="effect1_dropShadow_407_1312" result="shape"/>
</filter>
</defs>
</svg>
