<svg width="336" height="45" viewBox="0 0 336 45" fill="none" xmlns="http://www.w3.org/2000/svg">
<rect width="336" height="45" rx="5" fill="#F5F5F5"/>
<path d="M312.172 23L307.222 18.05L308.636 16.636L315 23L308.636 29.364L307.222 27.95L312.172 23Z" fill="#2D3748"/>
<path d="M29 33H13V31C13 29.6739 13.5268 28.4021 14.4645 27.4645C15.4021 26.5268 16.6739 26 18 26H24C25.3261 26 26.5979 26.5268 27.5355 27.4645C28.4732 28.4021 29 29.6739 29 31V33ZM21 24C20.2121 24 19.4319 23.8448 18.7039 23.5433C17.9759 23.2417 17.3145 22.7998 16.7574 22.2426C16.2002 21.6855 15.7583 21.0241 15.4567 20.2961C15.1552 19.5681 15 18.7879 15 18C15 17.2121 15.1552 16.4319 15.4567 15.7039C15.7583 14.9759 16.2002 14.3145 16.7574 13.7574C17.3145 13.2002 17.9759 12.7583 18.7039 12.4567C19.4319 12.1552 20.2121 12 21 12C22.5913 12 24.1174 12.6321 25.2426 13.7574C26.3679 14.8826 27 16.4087 27 18C27 19.5913 26.3679 21.1174 25.2426 22.2426C24.1174 23.3679 22.5913 24 21 24Z" fill="#464646"/>
<path d="M54.3203 16.625H58.0859C58.9401 16.625 59.6615 16.7552 60.25 17.0156C60.8438 17.276 61.2943 17.6615 61.6016 18.1719C61.9141 18.6771 62.0703 19.2995 62.0703 20.0391C62.0703 20.5599 61.9635 21.0365 61.75 21.4688C61.5417 21.8958 61.2396 22.2604 60.8438 22.5625C60.4531 22.8594 59.9844 23.0807 59.4375 23.2266L59.0156 23.3906H55.4766L55.4609 22.1641H58.1328C58.6745 22.1641 59.125 22.0703 59.4844 21.8828C59.8438 21.6901 60.1146 21.4323 60.2969 21.1094C60.4792 20.7865 60.5703 20.4297 60.5703 20.0391C60.5703 19.6016 60.4844 19.2188 60.3125 18.8906C60.1406 18.5625 59.8698 18.3099 59.5 18.1328C59.1354 17.9505 58.6641 17.8594 58.0859 17.8594H55.8281V28H54.3203V16.625ZM60.9688 28L58.2031 22.8438L59.7734 22.8359L62.5781 27.9062V28H60.9688ZM67.4688 28.1562C66.8802 28.1562 66.3464 28.0573 65.8672 27.8594C65.3932 27.6562 64.9844 27.3724 64.6406 27.0078C64.3021 26.6432 64.0417 26.2109 63.8594 25.7109C63.6771 25.2109 63.5859 24.6641 63.5859 24.0703V23.7422C63.5859 23.0547 63.6875 22.4427 63.8906 21.9062C64.0938 21.3646 64.3698 20.9062 64.7188 20.5312C65.0677 20.1562 65.4635 19.8724 65.9062 19.6797C66.349 19.487 66.8073 19.3906 67.2812 19.3906C67.8854 19.3906 68.4062 19.4948 68.8438 19.7031C69.2865 19.9115 69.6484 20.2031 69.9297 20.5781C70.2109 20.9479 70.4193 21.3854 70.5547 21.8906C70.6901 22.3906 70.7578 22.9375 70.7578 23.5312V24.1797H64.4453V23H69.3125V22.8906C69.2917 22.5156 69.2135 22.151 69.0781 21.7969C68.9479 21.4427 68.7396 21.151 68.4531 20.9219C68.1667 20.6927 67.776 20.5781 67.2812 20.5781C66.9531 20.5781 66.651 20.6484 66.375 20.7891C66.099 20.9245 65.862 21.1276 65.6641 21.3984C65.4661 21.6693 65.3125 22 65.2031 22.3906C65.0938 22.7812 65.0391 23.2318 65.0391 23.7422V24.0703C65.0391 24.4714 65.0938 24.849 65.2031 25.2031C65.3177 25.5521 65.4818 25.8594 65.6953 26.125C65.9141 26.3906 66.1771 26.599 66.4844 26.75C66.7969 26.901 67.151 26.9766 67.5469 26.9766C68.0573 26.9766 68.4896 26.8724 68.8438 26.6641C69.1979 26.4557 69.5078 26.1771 69.7734 25.8281L70.6484 26.5234C70.4661 26.7995 70.2344 27.0625 69.9531 27.3125C69.6719 27.5625 69.3255 27.7656 68.9141 27.9219C68.5078 28.0781 68.026 28.1562 67.4688 28.1562ZM77.7734 26.3594V16H79.2266V28H77.8984L77.7734 26.3594ZM72.0859 23.8672V23.7031C72.0859 23.0573 72.1641 22.4714 72.3203 21.9453C72.4818 21.4141 72.7083 20.9583 73 20.5781C73.2969 20.1979 73.6484 19.9062 74.0547 19.7031C74.4661 19.4948 74.9245 19.3906 75.4297 19.3906C75.9609 19.3906 76.4245 19.4844 76.8203 19.6719C77.2214 19.8542 77.5599 20.1224 77.8359 20.4766C78.1172 20.8255 78.3385 21.2474 78.5 21.7422C78.6615 22.237 78.7734 22.7969 78.8359 23.4219V24.1406C78.7786 24.7604 78.6667 25.3177 78.5 25.8125C78.3385 26.3073 78.1172 26.7292 77.8359 27.0781C77.5599 27.4271 77.2214 27.6953 76.8203 27.8828C76.4193 28.0651 75.9505 28.1562 75.4141 28.1562C74.9193 28.1562 74.4661 28.0495 74.0547 27.8359C73.6484 27.6224 73.2969 27.3229 73 26.9375C72.7083 26.5521 72.4818 26.099 72.3203 25.5781C72.1641 25.0521 72.0859 24.4818 72.0859 23.8672ZM73.5391 23.7031V23.8672C73.5391 24.2891 73.5807 24.6849 73.6641 25.0547C73.7526 25.4245 73.888 25.75 74.0703 26.0312C74.2526 26.3125 74.4844 26.5339 74.7656 26.6953C75.0469 26.8516 75.3828 26.9297 75.7734 26.9297C76.2526 26.9297 76.6458 26.8281 76.9531 26.625C77.2656 26.4219 77.5156 26.1536 77.7031 25.8203C77.8906 25.487 78.0365 25.125 78.1406 24.7344V22.8516C78.0781 22.5651 77.987 22.2891 77.8672 22.0234C77.7526 21.7526 77.6016 21.513 77.4141 21.3047C77.2318 21.0911 77.0052 20.9219 76.7344 20.7969C76.4688 20.6719 76.1536 20.6094 75.7891 20.6094C75.3932 20.6094 75.0521 20.6927 74.7656 20.8594C74.4844 21.0208 74.2526 21.2448 74.0703 21.5312C73.888 21.8125 73.7526 22.1406 73.6641 22.5156C73.5807 22.8854 73.5391 23.2812 73.5391 23.7031ZM83.0469 19.5469V28H81.5938V19.5469H83.0469ZM81.4844 17.3047C81.4844 17.0703 81.5547 16.8724 81.6953 16.7109C81.8411 16.5495 82.0547 16.4688 82.3359 16.4688C82.612 16.4688 82.8229 16.5495 82.9688 16.7109C83.1198 16.8724 83.1953 17.0703 83.1953 17.3047C83.1953 17.5286 83.1198 17.7214 82.9688 17.8828C82.8229 18.0391 82.612 18.1172 82.3359 18.1172C82.0547 18.1172 81.8411 18.0391 81.6953 17.8828C81.5547 17.7214 81.4844 17.5286 81.4844 17.3047ZM90.8438 19.5469H92.1562V27.8203C92.1562 28.5651 92.0052 29.2005 91.7031 29.7266C91.401 30.2526 90.9792 30.651 90.4375 30.9219C89.901 31.1979 89.2812 31.3359 88.5781 31.3359C88.2865 31.3359 87.9427 31.2891 87.5469 31.1953C87.1562 31.1068 86.7708 30.9531 86.3906 30.7344C86.0156 30.5208 85.7005 30.2318 85.4453 29.8672L86.2031 29.0078C86.5573 29.4349 86.9271 29.7318 87.3125 29.8984C87.7031 30.0651 88.0885 30.1484 88.4688 30.1484C88.9271 30.1484 89.3229 30.0625 89.6562 29.8906C89.9896 29.7188 90.2474 29.4635 90.4297 29.125C90.6172 28.7917 90.7109 28.3802 90.7109 27.8906V21.4062L90.8438 19.5469ZM85.0234 23.8672V23.7031C85.0234 23.0573 85.099 22.4714 85.25 21.9453C85.4062 21.4141 85.6276 20.9583 85.9141 20.5781C86.2057 20.1979 86.5573 19.9062 86.9688 19.7031C87.3802 19.4948 87.8438 19.3906 88.3594 19.3906C88.8906 19.3906 89.3542 19.4844 89.75 19.6719C90.151 19.8542 90.4896 20.1224 90.7656 20.4766C91.0469 20.8255 91.2682 21.2474 91.4297 21.7422C91.5911 22.237 91.7031 22.7969 91.7656 23.4219V24.1406C91.7083 24.7604 91.5964 25.3177 91.4297 25.8125C91.2682 26.3073 91.0469 26.7292 90.7656 27.0781C90.4896 27.4271 90.151 27.6953 89.75 27.8828C89.349 28.0651 88.8802 28.1562 88.3438 28.1562C87.8385 28.1562 87.3802 28.0495 86.9688 27.8359C86.5625 27.6224 86.2135 27.3229 85.9219 26.9375C85.6302 26.5521 85.4062 26.099 85.25 25.5781C85.099 25.0521 85.0234 24.4818 85.0234 23.8672ZM86.4688 23.7031V23.8672C86.4688 24.2891 86.5104 24.6849 86.5938 25.0547C86.6823 25.4245 86.8151 25.75 86.9922 26.0312C87.1745 26.3125 87.4062 26.5339 87.6875 26.6953C87.9688 26.8516 88.3047 26.9297 88.6953 26.9297C89.1745 26.9297 89.5703 26.8281 89.8828 26.625C90.1953 26.4219 90.4427 26.1536 90.625 25.8203C90.8125 25.487 90.9583 25.125 91.0625 24.7344V22.8516C91.0052 22.5651 90.9167 22.2891 90.7969 22.0234C90.6823 21.7526 90.5312 21.513 90.3438 21.3047C90.1615 21.0911 89.9349 20.9219 89.6641 20.7969C89.3932 20.6719 89.0755 20.6094 88.7109 20.6094C88.3151 20.6094 87.974 20.6927 87.6875 20.8594C87.4062 21.0208 87.1745 21.2448 86.9922 21.5312C86.8151 21.8125 86.6823 22.1406 86.5938 22.5156C86.5104 22.8854 86.4688 23.2812 86.4688 23.7031ZM97.8594 28.1562C97.2708 28.1562 96.737 28.0573 96.2578 27.8594C95.7839 27.6562 95.375 27.3724 95.0312 27.0078C94.6927 26.6432 94.4323 26.2109 94.25 25.7109C94.0677 25.2109 93.9766 24.6641 93.9766 24.0703V23.7422C93.9766 23.0547 94.0781 22.4427 94.2812 21.9062C94.4844 21.3646 94.7604 20.9062 95.1094 20.5312C95.4583 20.1562 95.8542 19.8724 96.2969 19.6797C96.7396 19.487 97.1979 19.3906 97.6719 19.3906C98.276 19.3906 98.7969 19.4948 99.2344 19.7031C99.6771 19.9115 100.039 20.2031 100.32 20.5781C100.602 20.9479 100.81 21.3854 100.945 21.8906C101.081 22.3906 101.148 22.9375 101.148 23.5312V24.1797H94.8359V23H99.7031V22.8906C99.6823 22.5156 99.6042 22.151 99.4688 21.7969C99.3385 21.4427 99.1302 21.151 98.8438 20.9219C98.5573 20.6927 98.1667 20.5781 97.6719 20.5781C97.3438 20.5781 97.0417 20.6484 96.7656 20.7891C96.4896 20.9245 96.2526 21.1276 96.0547 21.3984C95.8568 21.6693 95.7031 22 95.5938 22.3906C95.4844 22.7812 95.4297 23.2318 95.4297 23.7422V24.0703C95.4297 24.4714 95.4844 24.849 95.5938 25.2031C95.7083 25.5521 95.8724 25.8594 96.0859 26.125C96.3047 26.3906 96.5677 26.599 96.875 26.75C97.1875 26.901 97.5417 26.9766 97.9375 26.9766C98.4479 26.9766 98.8802 26.8724 99.2344 26.6641C99.5885 26.4557 99.8984 26.1771 100.164 25.8281L101.039 26.5234C100.857 26.7995 100.625 27.0625 100.344 27.3125C100.062 27.5625 99.7161 27.7656 99.3047 27.9219C98.8984 28.0781 98.4167 28.1562 97.8594 28.1562ZM104.281 20.875V28H102.836V19.5469H104.242L104.281 20.875ZM106.922 19.5L106.914 20.8438C106.794 20.8177 106.68 20.8021 106.57 20.7969C106.466 20.7865 106.346 20.7812 106.211 20.7812C105.878 20.7812 105.583 20.8333 105.328 20.9375C105.073 21.0417 104.857 21.1875 104.68 21.375C104.503 21.5625 104.362 21.7865 104.258 22.0469C104.159 22.3021 104.094 22.5833 104.062 22.8906L103.656 23.125C103.656 22.6146 103.706 22.1354 103.805 21.6875C103.909 21.2396 104.068 20.8438 104.281 20.5C104.495 20.151 104.766 19.8802 105.094 19.6875C105.427 19.4896 105.823 19.3906 106.281 19.3906C106.385 19.3906 106.505 19.4036 106.641 19.4297C106.776 19.4505 106.87 19.474 106.922 19.5ZM112.93 26.5547V22.2031C112.93 21.8698 112.862 21.5807 112.727 21.3359C112.596 21.0859 112.398 20.8932 112.133 20.7578C111.867 20.6224 111.539 20.5547 111.148 20.5547C110.784 20.5547 110.464 20.6172 110.188 20.7422C109.917 20.8672 109.703 21.0312 109.547 21.2344C109.396 21.4375 109.32 21.6562 109.32 21.8906H107.875C107.875 21.5885 107.953 21.2891 108.109 20.9922C108.266 20.6953 108.49 20.4271 108.781 20.1875C109.078 19.9427 109.432 19.75 109.844 19.6094C110.26 19.4635 110.724 19.3906 111.234 19.3906C111.849 19.3906 112.391 19.4948 112.859 19.7031C113.333 19.9115 113.703 20.2266 113.969 20.6484C114.24 21.0651 114.375 21.5885 114.375 22.2188V26.1562C114.375 26.4375 114.398 26.737 114.445 27.0547C114.497 27.3724 114.573 27.6458 114.672 27.875V28H113.164C113.091 27.8333 113.034 27.612 112.992 27.3359C112.951 27.0547 112.93 26.7943 112.93 26.5547ZM113.18 22.875L113.195 23.8906H111.734C111.323 23.8906 110.956 23.9245 110.633 23.9922C110.31 24.0547 110.039 24.151 109.82 24.2812C109.602 24.4115 109.435 24.5755 109.32 24.7734C109.206 24.9661 109.148 25.1927 109.148 25.4531C109.148 25.7188 109.208 25.9609 109.328 26.1797C109.448 26.3984 109.628 26.5729 109.867 26.7031C110.112 26.8281 110.411 26.8906 110.766 26.8906C111.208 26.8906 111.599 26.7969 111.938 26.6094C112.276 26.4219 112.544 26.1927 112.742 25.9219C112.945 25.651 113.055 25.388 113.07 25.1328L113.688 25.8281C113.651 26.0469 113.552 26.2891 113.391 26.5547C113.229 26.8203 113.013 27.0755 112.742 27.3203C112.477 27.5599 112.159 27.7604 111.789 27.9219C111.424 28.0781 111.013 28.1562 110.555 28.1562C109.982 28.1562 109.479 28.0443 109.047 27.8203C108.62 27.5964 108.286 27.2969 108.047 26.9219C107.812 26.5417 107.695 26.1172 107.695 25.6484C107.695 25.1953 107.784 24.7969 107.961 24.4531C108.138 24.1042 108.393 23.8151 108.727 23.5859C109.06 23.3516 109.461 23.1745 109.93 23.0547C110.398 22.9349 110.922 22.875 111.5 22.875H113.18ZM122.062 21.1719V31.25H120.609V19.5469H121.938L122.062 21.1719ZM127.758 23.7031V23.8672C127.758 24.4818 127.685 25.0521 127.539 25.5781C127.393 26.099 127.18 26.5521 126.898 26.9375C126.622 27.3229 126.281 27.6224 125.875 27.8359C125.469 28.0495 125.003 28.1562 124.477 28.1562C123.94 28.1562 123.466 28.0677 123.055 27.8906C122.643 27.7135 122.294 27.4557 122.008 27.1172C121.721 26.7786 121.492 26.3724 121.32 25.8984C121.154 25.4245 121.039 24.8906 120.977 24.2969V23.4219C121.039 22.7969 121.156 22.237 121.328 21.7422C121.5 21.2474 121.727 20.8255 122.008 20.4766C122.294 20.1224 122.641 19.8542 123.047 19.6719C123.453 19.4844 123.922 19.3906 124.453 19.3906C124.984 19.3906 125.456 19.4948 125.867 19.7031C126.279 19.9062 126.625 20.1979 126.906 20.5781C127.188 20.9583 127.398 21.4141 127.539 21.9453C127.685 22.4714 127.758 23.0573 127.758 23.7031ZM126.305 23.8672V23.7031C126.305 23.2812 126.26 22.8854 126.172 22.5156C126.083 22.1406 125.945 21.8125 125.758 21.5312C125.576 21.2448 125.341 21.0208 125.055 20.8594C124.768 20.6927 124.427 20.6094 124.031 20.6094C123.667 20.6094 123.349 20.6719 123.078 20.7969C122.812 20.9219 122.586 21.0911 122.398 21.3047C122.211 21.513 122.057 21.7526 121.938 22.0234C121.823 22.2891 121.737 22.5651 121.68 22.8516V24.875C121.784 25.2396 121.93 25.5833 122.117 25.9062C122.305 26.224 122.555 26.4818 122.867 26.6797C123.18 26.8724 123.573 26.9688 124.047 26.9688C124.438 26.9688 124.773 26.888 125.055 26.7266C125.341 26.5599 125.576 26.3333 125.758 26.0469C125.945 25.7604 126.083 25.4323 126.172 25.0625C126.26 24.6875 126.305 24.2891 126.305 23.8672ZM131.047 20.875V28H129.602V19.5469H131.008L131.047 20.875ZM133.688 19.5L133.68 20.8437C133.56 20.8177 133.445 20.8021 133.336 20.7969C133.232 20.7865 133.112 20.7812 132.977 20.7812C132.643 20.7812 132.349 20.8333 132.094 20.9375C131.839 21.0417 131.622 21.1875 131.445 21.375C131.268 21.5625 131.128 21.7865 131.023 22.0469C130.924 22.3021 130.859 22.5833 130.828 22.8906L130.422 23.125C130.422 22.6146 130.471 22.1354 130.57 21.6875C130.674 21.2396 130.833 20.8438 131.047 20.5C131.26 20.151 131.531 19.8802 131.859 19.6875C132.193 19.4896 132.589 19.3906 133.047 19.3906C133.151 19.3906 133.271 19.4036 133.406 19.4297C133.542 19.4505 133.635 19.474 133.688 19.5ZM134.484 23.8672V23.6875C134.484 23.0781 134.573 22.513 134.75 21.9922C134.927 21.4661 135.182 21.0104 135.516 20.625C135.849 20.2344 136.253 19.9323 136.727 19.7187C137.201 19.5 137.732 19.3906 138.32 19.3906C138.914 19.3906 139.448 19.5 139.922 19.7187C140.401 19.9323 140.807 20.2344 141.141 20.625C141.479 21.0104 141.737 21.4661 141.914 21.9922C142.091 22.513 142.18 23.0781 142.18 23.6875V23.8672C142.18 24.4766 142.091 25.0417 141.914 25.5625C141.737 26.0833 141.479 26.5391 141.141 26.9297C140.807 27.3151 140.404 27.6172 139.93 27.8359C139.461 28.0495 138.93 28.1562 138.336 28.1562C137.742 28.1562 137.208 28.0495 136.734 27.8359C136.26 27.6172 135.854 27.3151 135.516 26.9297C135.182 26.5391 134.927 26.0833 134.75 25.5625C134.573 25.0417 134.484 24.4766 134.484 23.8672ZM135.93 23.6875V23.8672C135.93 24.2891 135.979 24.6875 136.078 25.0625C136.177 25.4323 136.326 25.7604 136.523 26.0469C136.727 26.3333 136.979 26.5599 137.281 26.7266C137.583 26.888 137.935 26.9688 138.336 26.9688C138.732 26.9688 139.078 26.888 139.375 26.7266C139.677 26.5599 139.927 26.3333 140.125 26.0469C140.323 25.7604 140.471 25.4323 140.57 25.0625C140.674 24.6875 140.727 24.2891 140.727 23.8672V23.6875C140.727 23.2708 140.674 22.8776 140.57 22.5078C140.471 22.1328 140.32 21.8021 140.117 21.5156C139.919 21.224 139.669 20.9948 139.367 20.8281C139.07 20.6615 138.721 20.5781 138.32 20.5781C137.924 20.5781 137.576 20.6615 137.273 20.8281C136.977 20.9948 136.727 21.224 136.523 21.5156C136.326 21.8021 136.177 22.1328 136.078 22.5078C135.979 22.8776 135.93 23.2708 135.93 23.6875ZM145.922 28H144.477V18.8125C144.477 18.1719 144.602 17.6302 144.852 17.1875C145.102 16.7448 145.458 16.4089 145.922 16.1797C146.385 15.9505 146.935 15.8359 147.57 15.8359C147.945 15.8359 148.312 15.8828 148.672 15.9766C149.031 16.0651 149.401 16.1771 149.781 16.3125L149.539 17.5312C149.299 17.4375 149.021 17.349 148.703 17.2656C148.391 17.1771 148.047 17.1328 147.672 17.1328C147.052 17.1328 146.604 17.2734 146.328 17.5547C146.057 17.8307 145.922 18.25 145.922 18.8125V28ZM147.648 19.5469V20.6562H143.141V19.5469H147.648ZM150.492 19.5469V28H149.047V19.5469H150.492ZM154.438 16V28H152.984V16H154.438Z" fill="black"/>
</svg>
