<svg width="336" height="45" viewBox="0 0 336 45" fill="none" xmlns="http://www.w3.org/2000/svg">
<rect width="336" height="45" rx="5" fill="#F5F5F5"/>
<path d="M312.172 23L307.222 18.05L308.636 16.636L315 23L308.636 29.364L307.222 27.95L312.172 23Z" fill="#2D3748"/>
<path d="M55.9375 16.625V28H54.4297V16.625H55.9375ZM59.9062 21.3516V28H58.4609V19.5469H59.8281L59.9062 21.3516ZM59.5625 23.4531L58.9609 23.4297C58.9661 22.8516 59.0521 22.3177 59.2188 21.8281C59.3854 21.3333 59.6198 20.9036 59.9219 20.5391C60.224 20.1745 60.5833 19.8932 61 19.6953C61.4219 19.4922 61.888 19.3906 62.3984 19.3906C62.8151 19.3906 63.1901 19.4479 63.5234 19.5625C63.8568 19.6719 64.1406 19.849 64.375 20.0938C64.6146 20.3385 64.7969 20.6562 64.9219 21.0469C65.0469 21.4323 65.1094 21.9036 65.1094 22.4609V28H63.6562V22.4453C63.6562 22.0026 63.5911 21.6484 63.4609 21.3828C63.3307 21.112 63.1406 20.9167 62.8906 20.7969C62.6406 20.6719 62.3333 20.6094 61.9688 20.6094C61.6094 20.6094 61.2812 20.6849 60.9844 20.8359C60.6927 20.987 60.4401 21.1953 60.2266 21.4609C60.0182 21.7266 59.8542 22.0312 59.7344 22.375C59.6198 22.7135 59.5625 23.0729 59.5625 23.4531ZM72.2266 25.7578C72.2266 25.5495 72.1797 25.3568 72.0859 25.1797C71.9974 24.9974 71.8125 24.8333 71.5312 24.6875C71.2552 24.5365 70.8385 24.4062 70.2812 24.2969C69.8125 24.1979 69.388 24.0807 69.0078 23.9453C68.6328 23.8099 68.3125 23.6458 68.0469 23.4531C67.7865 23.2604 67.5859 23.0339 67.4453 22.7734C67.3047 22.513 67.2344 22.2083 67.2344 21.8594C67.2344 21.526 67.3073 21.2109 67.4531 20.9141C67.6042 20.6172 67.8151 20.3542 68.0859 20.125C68.362 19.8958 68.6927 19.7161 69.0781 19.5859C69.4635 19.4557 69.8932 19.3906 70.3672 19.3906C71.0443 19.3906 71.6224 19.5104 72.1016 19.75C72.5807 19.9896 72.9479 20.3099 73.2031 20.7109C73.4583 21.1068 73.5859 21.5469 73.5859 22.0312H72.1406C72.1406 21.7969 72.0703 21.5703 71.9297 21.3516C71.7943 21.1276 71.5938 20.9427 71.3281 20.7969C71.0677 20.651 70.7474 20.5781 70.3672 20.5781C69.9661 20.5781 69.6406 20.6406 69.3906 20.7656C69.1458 20.8854 68.9661 21.0391 68.8516 21.2266C68.7422 21.4141 68.6875 21.612 68.6875 21.8203C68.6875 21.9766 68.7135 22.1172 68.7656 22.2422C68.8229 22.362 68.9219 22.474 69.0625 22.5781C69.2031 22.6771 69.401 22.7708 69.6562 22.8594C69.9115 22.9479 70.237 23.0365 70.6328 23.125C71.3255 23.2812 71.8958 23.4688 72.3438 23.6875C72.7917 23.9062 73.125 24.1745 73.3438 24.4922C73.5625 24.8099 73.6719 25.1953 73.6719 25.6484C73.6719 26.0182 73.5938 26.3568 73.4375 26.6641C73.2865 26.9714 73.0651 27.237 72.7734 27.4609C72.487 27.6797 72.1432 27.8516 71.7422 27.9766C71.3464 28.0964 70.901 28.1562 70.4062 28.1562C69.6615 28.1562 69.0312 28.0234 68.5156 27.7578C68 27.4922 67.6094 27.1484 67.3438 26.7266C67.0781 26.3047 66.9453 25.8594 66.9453 25.3906H68.3984C68.4193 25.7865 68.5339 26.1016 68.7422 26.3359C68.9505 26.5651 69.2057 26.7292 69.5078 26.8281C69.8099 26.9219 70.1094 26.9688 70.4062 26.9688C70.8021 26.9688 71.1328 26.9167 71.3984 26.8125C71.6693 26.7083 71.875 26.5651 72.0156 26.3828C72.1562 26.2005 72.2266 25.9922 72.2266 25.7578ZM79.1094 19.5469V20.6562H74.5391V19.5469H79.1094ZM76.0859 17.4922H77.5312V25.9062C77.5312 26.1927 77.5755 26.4089 77.6641 26.5547C77.7526 26.7005 77.8672 26.7969 78.0078 26.8438C78.1484 26.8906 78.2995 26.9141 78.4609 26.9141C78.5807 26.9141 78.7057 26.9036 78.8359 26.8828C78.9714 26.8568 79.0729 26.8359 79.1406 26.8203L79.1484 28C79.0339 28.0365 78.8828 28.0703 78.6953 28.1016C78.513 28.138 78.2917 28.1562 78.0312 28.1562C77.6771 28.1562 77.3516 28.0859 77.0547 27.9453C76.7578 27.8047 76.5208 27.5703 76.3438 27.2422C76.1719 26.9089 76.0859 26.4609 76.0859 25.8984V17.4922ZM85.7891 26.5547V22.2031C85.7891 21.8698 85.7214 21.5807 85.5859 21.3359C85.4557 21.0859 85.2578 20.8932 84.9922 20.7578C84.7266 20.6224 84.3984 20.5547 84.0078 20.5547C83.6432 20.5547 83.3229 20.6172 83.0469 20.7422C82.776 20.8672 82.5625 21.0312 82.4062 21.2344C82.2552 21.4375 82.1797 21.6562 82.1797 21.8906H80.7344C80.7344 21.5885 80.8125 21.2891 80.9688 20.9922C81.125 20.6953 81.349 20.4271 81.6406 20.1875C81.9375 19.9427 82.2917 19.75 82.7031 19.6094C83.1198 19.4635 83.5833 19.3906 84.0938 19.3906C84.7083 19.3906 85.25 19.4948 85.7188 19.7031C86.1927 19.9115 86.5625 20.2266 86.8281 20.6484C87.099 21.0651 87.2344 21.5885 87.2344 22.2188V26.1562C87.2344 26.4375 87.2578 26.737 87.3047 27.0547C87.3568 27.3724 87.4323 27.6458 87.5312 27.875V28H86.0234C85.9505 27.8333 85.8932 27.612 85.8516 27.3359C85.8099 27.0547 85.7891 26.7943 85.7891 26.5547ZM86.0391 22.875L86.0547 23.8906H84.5938C84.1823 23.8906 83.8151 23.9245 83.4922 23.9922C83.1693 24.0547 82.8984 24.151 82.6797 24.2812C82.4609 24.4115 82.2943 24.5755 82.1797 24.7734C82.0651 24.9661 82.0078 25.1927 82.0078 25.4531C82.0078 25.7188 82.0677 25.9609 82.1875 26.1797C82.3073 26.3984 82.487 26.5729 82.7266 26.7031C82.9714 26.8281 83.2708 26.8906 83.625 26.8906C84.0677 26.8906 84.4583 26.7969 84.7969 26.6094C85.1354 26.4219 85.4036 26.1927 85.6016 25.9219C85.8047 25.651 85.9141 25.388 85.9297 25.1328L86.5469 25.8281C86.5104 26.0469 86.4115 26.2891 86.25 26.5547C86.0885 26.8203 85.8724 27.0755 85.6016 27.3203C85.3359 27.5599 85.0182 27.7604 84.6484 27.9219C84.2839 28.0781 83.8724 28.1562 83.4141 28.1562C82.8411 28.1562 82.3385 28.0443 81.9062 27.8203C81.4792 27.5964 81.1458 27.2969 80.9062 26.9219C80.6719 26.5417 80.5547 26.1172 80.5547 25.6484C80.5547 25.1953 80.6432 24.7969 80.8203 24.4531C80.9974 24.1042 81.2526 23.8151 81.5859 23.5859C81.9193 23.3516 82.3203 23.1745 82.7891 23.0547C83.2578 22.9349 83.7812 22.875 84.3594 22.875H86.0391ZM81.7344 17.2891C81.7344 17.0547 81.8073 16.8568 81.9531 16.6953C82.099 16.5339 82.3099 16.4531 82.5859 16.4531C82.8672 16.4531 83.0807 16.5339 83.2266 16.6953C83.3724 16.8568 83.4453 17.0547 83.4453 17.2891C83.4453 17.513 83.3724 17.7057 83.2266 17.8672C83.0807 18.0234 82.8672 18.1016 82.5859 18.1016C82.3099 18.1016 82.099 18.0234 81.9531 17.8672C81.8073 17.7057 81.7344 17.513 81.7344 17.2891ZM85.1016 17.3047C85.1016 17.0703 85.1719 16.8724 85.3125 16.7109C85.4583 16.5495 85.6719 16.4688 85.9531 16.4688C86.2292 16.4688 86.4401 16.5495 86.5859 16.7109C86.737 16.8724 86.8125 17.0703 86.8125 17.3047C86.8125 17.5286 86.737 17.7214 86.5859 17.8828C86.4401 18.0391 86.2292 18.1172 85.9531 18.1172C85.6719 18.1172 85.4583 18.0391 85.3125 17.8828C85.1719 17.7214 85.1016 17.5286 85.1016 17.3047ZM91.0781 16V28H89.625V16H91.0781ZM94.9688 16V28H93.5156V16H94.9688ZM98.7344 21.3516V28H97.2891V19.5469H98.6562L98.7344 21.3516ZM98.3906 23.4531L97.7891 23.4297C97.7943 22.8516 97.8802 22.3177 98.0469 21.8281C98.2135 21.3333 98.4479 20.9036 98.75 20.5391C99.0521 20.1745 99.4115 19.8932 99.8281 19.6953C100.25 19.4922 100.716 19.3906 101.227 19.3906C101.643 19.3906 102.018 19.4479 102.352 19.5625C102.685 19.6719 102.969 19.849 103.203 20.0938C103.443 20.3385 103.625 20.6562 103.75 21.0469C103.875 21.4323 103.938 21.9036 103.938 22.4609V28H102.484V22.4453C102.484 22.0026 102.419 21.6484 102.289 21.3828C102.159 21.112 101.969 20.9167 101.719 20.7969C101.469 20.6719 101.161 20.6094 100.797 20.6094C100.438 20.6094 100.109 20.6849 99.8125 20.8359C99.5208 20.987 99.2682 21.1953 99.0547 21.4609C98.8464 21.7266 98.6823 22.0312 98.5625 22.375C98.4479 22.7135 98.3906 23.0729 98.3906 23.4531ZM107.703 19.5469V28H106.25V19.5469H107.703ZM106.141 17.3047C106.141 17.0703 106.211 16.8724 106.352 16.7109C106.497 16.5495 106.711 16.4688 106.992 16.4688C107.268 16.4688 107.479 16.5495 107.625 16.7109C107.776 16.8724 107.852 17.0703 107.852 17.3047C107.852 17.5286 107.776 17.7214 107.625 17.8828C107.479 18.0391 107.268 18.1172 106.992 18.1172C106.711 18.1172 106.497 18.0391 106.352 17.8828C106.211 17.7214 106.141 17.5286 106.141 17.3047ZM111.469 21.3516V28H110.023V19.5469H111.391L111.469 21.3516ZM111.125 23.4531L110.523 23.4297C110.529 22.8516 110.615 22.3177 110.781 21.8281C110.948 21.3333 111.182 20.9036 111.484 20.5391C111.786 20.1745 112.146 19.8932 112.562 19.6953C112.984 19.4922 113.451 19.3906 113.961 19.3906C114.378 19.3906 114.753 19.4479 115.086 19.5625C115.419 19.6719 115.703 19.849 115.938 20.0938C116.177 20.3385 116.359 20.6562 116.484 21.0469C116.609 21.4323 116.672 21.9036 116.672 22.4609V28H115.219V22.4453C115.219 22.0026 115.154 21.6484 115.023 21.3828C114.893 21.112 114.703 20.9167 114.453 20.7969C114.203 20.6719 113.896 20.6094 113.531 20.6094C113.172 20.6094 112.844 20.6849 112.547 20.8359C112.255 20.987 112.003 21.1953 111.789 21.4609C111.581 21.7266 111.417 22.0312 111.297 22.375C111.182 22.7135 111.125 23.0729 111.125 23.4531ZM124.344 19.5469H125.656V27.8203C125.656 28.5651 125.505 29.2005 125.203 29.7266C124.901 30.2526 124.479 30.651 123.938 30.9219C123.401 31.1979 122.781 31.3359 122.078 31.3359C121.786 31.3359 121.443 31.2891 121.047 31.1953C120.656 31.1068 120.271 30.9531 119.891 30.7344C119.516 30.5208 119.201 30.2318 118.945 29.8672L119.703 29.0078C120.057 29.4349 120.427 29.7318 120.812 29.8984C121.203 30.0651 121.589 30.1484 121.969 30.1484C122.427 30.1484 122.823 30.0625 123.156 29.8906C123.49 29.7187 123.747 29.4635 123.93 29.125C124.117 28.7917 124.211 28.3802 124.211 27.8906V21.4062L124.344 19.5469ZM118.523 23.8672V23.7031C118.523 23.0573 118.599 22.4714 118.75 21.9453C118.906 21.4141 119.128 20.9583 119.414 20.5781C119.706 20.1979 120.057 19.9062 120.469 19.7031C120.88 19.4948 121.344 19.3906 121.859 19.3906C122.391 19.3906 122.854 19.4844 123.25 19.6719C123.651 19.8542 123.99 20.1224 124.266 20.4766C124.547 20.8255 124.768 21.2474 124.93 21.7422C125.091 22.237 125.203 22.7969 125.266 23.4219V24.1406C125.208 24.7604 125.096 25.3177 124.93 25.8125C124.768 26.3073 124.547 26.7292 124.266 27.0781C123.99 27.4271 123.651 27.6953 123.25 27.8828C122.849 28.0651 122.38 28.1562 121.844 28.1562C121.339 28.1562 120.88 28.0495 120.469 27.8359C120.062 27.6224 119.714 27.3229 119.422 26.9375C119.13 26.5521 118.906 26.099 118.75 25.5781C118.599 25.0521 118.523 24.4818 118.523 23.8672ZM119.969 23.7031V23.8672C119.969 24.2891 120.01 24.6849 120.094 25.0547C120.182 25.4245 120.315 25.75 120.492 26.0312C120.674 26.3125 120.906 26.5339 121.188 26.6953C121.469 26.8516 121.805 26.9297 122.195 26.9297C122.674 26.9297 123.07 26.8281 123.383 26.625C123.695 26.4219 123.943 26.1536 124.125 25.8203C124.312 25.487 124.458 25.125 124.562 24.7344V22.8516C124.505 22.5651 124.417 22.2891 124.297 22.0234C124.182 21.7526 124.031 21.513 123.844 21.3047C123.661 21.0911 123.435 20.9219 123.164 20.7969C122.893 20.6719 122.576 20.6094 122.211 20.6094C121.815 20.6094 121.474 20.6927 121.188 20.8594C120.906 21.0208 120.674 21.2448 120.492 21.5312C120.315 21.8125 120.182 22.1406 120.094 22.5156C120.01 22.8854 119.969 23.2812 119.969 23.7031ZM132.836 26.5547V22.2031C132.836 21.8698 132.768 21.5807 132.633 21.3359C132.503 21.0859 132.305 20.8932 132.039 20.7578C131.773 20.6224 131.445 20.5547 131.055 20.5547C130.69 20.5547 130.37 20.6172 130.094 20.7422C129.823 20.8672 129.609 21.0312 129.453 21.2344C129.302 21.4375 129.227 21.6562 129.227 21.8906H127.781C127.781 21.5885 127.859 21.2891 128.016 20.9922C128.172 20.6953 128.396 20.4271 128.688 20.1875C128.984 19.9427 129.339 19.75 129.75 19.6094C130.167 19.4635 130.63 19.3906 131.141 19.3906C131.755 19.3906 132.297 19.4948 132.766 19.7031C133.24 19.9115 133.609 20.2266 133.875 20.6484C134.146 21.0651 134.281 21.5885 134.281 22.2188V26.1562C134.281 26.4375 134.305 26.737 134.352 27.0547C134.404 27.3724 134.479 27.6458 134.578 27.875V28H133.07C132.997 27.8333 132.94 27.612 132.898 27.3359C132.857 27.0547 132.836 26.7943 132.836 26.5547ZM133.086 22.875L133.102 23.8906H131.641C131.229 23.8906 130.862 23.9245 130.539 23.9922C130.216 24.0547 129.945 24.151 129.727 24.2812C129.508 24.4115 129.341 24.5755 129.227 24.7734C129.112 24.9661 129.055 25.1927 129.055 25.4531C129.055 25.7188 129.115 25.9609 129.234 26.1797C129.354 26.3984 129.534 26.5729 129.773 26.7031C130.018 26.8281 130.318 26.8906 130.672 26.8906C131.115 26.8906 131.505 26.7969 131.844 26.6094C132.182 26.4219 132.451 26.1927 132.648 25.9219C132.852 25.651 132.961 25.388 132.977 25.1328L133.594 25.8281C133.557 26.0469 133.458 26.2891 133.297 26.5547C133.135 26.8203 132.919 27.0755 132.648 27.3203C132.383 27.5599 132.065 27.7604 131.695 27.9219C131.331 28.0781 130.919 28.1562 130.461 28.1562C129.888 28.1562 129.385 28.0443 128.953 27.8203C128.526 27.5964 128.193 27.2969 127.953 26.9219C127.719 26.5417 127.602 26.1172 127.602 25.6484C127.602 25.1953 127.69 24.7969 127.867 24.4531C128.044 24.1042 128.299 23.8151 128.633 23.5859C128.966 23.3516 129.367 23.1745 129.836 23.0547C130.305 22.9349 130.828 22.875 131.406 22.875H133.086ZM138 20.875V28H136.555V19.5469H137.961L138 20.875ZM140.641 19.5L140.633 20.8437C140.513 20.8177 140.398 20.8021 140.289 20.7969C140.185 20.7865 140.065 20.7812 139.93 20.7812C139.596 20.7812 139.302 20.8333 139.047 20.9375C138.792 21.0417 138.576 21.1875 138.398 21.375C138.221 21.5625 138.081 21.7865 137.977 22.0469C137.878 22.3021 137.812 22.5833 137.781 22.8906L137.375 23.125C137.375 22.6146 137.424 22.1354 137.523 21.6875C137.628 21.2396 137.786 20.8437 138 20.5C138.214 20.151 138.484 19.8802 138.812 19.6875C139.146 19.4896 139.542 19.3906 140 19.3906C140.104 19.3906 140.224 19.4036 140.359 19.4297C140.495 19.4505 140.589 19.474 140.641 19.5Z" fill="black"/>
<path d="M12.3401 27.9999C11.9173 27.2689 11.5887 26.4874 11.3621 25.6739C11.8554 25.423 12.2697 25.0406 12.5591 24.5688C12.8485 24.0971 13.0018 23.5545 13.002 23.0011C13.0022 22.4476 12.8493 21.9049 12.5603 21.4329C12.2712 20.961 11.8572 20.5782 11.3641 20.3269C11.8161 18.6924 12.6768 17.1999 13.8651 15.9899C14.3292 16.2917 14.8677 16.4591 15.421 16.4737C15.9744 16.4883 16.521 16.3496 17.0004 16.0728C17.4798 15.796 17.8732 15.3919 18.1372 14.9054C18.4012 14.4188 18.5254 13.8687 18.4961 13.3159C20.1382 12.8916 21.8613 12.8923 23.5031 13.3179C23.474 13.8707 23.5985 14.4207 23.8626 14.9072C24.1268 15.3936 24.5204 15.7974 24.9999 16.074C25.4794 16.3506 26.026 16.4891 26.5793 16.4743C27.1327 16.4595 27.6711 16.2918 28.1351 15.9899C28.7141 16.5799 29.2281 17.2509 29.6601 17.9999C30.0931 18.7489 30.4171 19.5299 30.6381 20.3259C30.1448 20.5768 29.7305 20.9593 29.441 21.4311C29.1516 21.9028 28.9983 22.4454 28.9981 22.9988C28.9979 23.5523 29.1508 24.095 29.4399 24.5669C29.7289 25.0389 30.1429 25.4217 30.6361 25.6729C30.184 27.3075 29.3233 28.8 28.1351 30.0099C27.671 29.7082 27.1324 29.5408 26.5791 29.5262C26.0257 29.5115 25.4791 29.6503 24.9997 29.9271C24.5204 30.2039 24.1269 30.6079 23.8629 31.0945C23.599 31.5811 23.4748 32.1312 23.5041 32.6839C21.862 33.1083 20.1388 33.1076 18.4971 32.6819C18.5261 32.1292 18.4017 31.5792 18.1375 31.0927C17.8733 30.6063 17.4797 30.2025 17.0002 29.9259C16.5208 29.6493 15.9741 29.5108 15.4208 29.5256C14.8675 29.5404 14.329 29.7081 13.8651 30.0099C13.2741 29.4069 12.7617 28.7315 12.3401 27.9999ZM18.0001 28.1959C19.0657 28.8106 19.8669 29.797 20.2501 30.9659C20.7491 31.0129 21.2501 31.0139 21.7491 30.9669C22.1325 29.7978 22.9341 28.8114 24.0001 28.1969C25.0653 27.5806 26.3206 27.3794 27.5251 27.6319C27.8151 27.2239 28.0651 26.7889 28.2731 26.3339C27.4525 25.4174 26.9992 24.2302 27.0001 22.9999C27.0001 21.7399 27.4701 20.5629 28.2731 19.6659C28.0636 19.2111 27.8125 18.7766 27.5231 18.3679C26.3193 18.6203 25.0649 18.4194 24.0001 17.8039C22.9344 17.1893 22.1332 16.2029 21.7501 15.0339C21.2511 14.9869 20.7501 14.9859 20.2511 15.0329C19.8677 16.2021 19.0661 17.1885 18.0001 17.8029C16.9348 18.4193 15.6795 18.6205 14.4751 18.3679C14.1856 18.7762 13.9352 19.2108 13.7271 19.6659C14.5476 20.5825 15.0009 21.7697 15.0001 22.9999C15.0001 24.2599 14.5301 25.4369 13.7271 26.3339C13.9365 26.7888 14.1876 27.2233 14.4771 27.6319C15.6808 27.3796 16.9353 27.5805 18.0001 28.1959ZM21.0001 25.9999C20.2044 25.9999 19.4413 25.6839 18.8787 25.1213C18.3161 24.5587 18.0001 23.7956 18.0001 22.9999C18.0001 22.2043 18.3161 21.4412 18.8787 20.8786C19.4413 20.316 20.2044 19.9999 21.0001 19.9999C21.7957 19.9999 22.5588 20.316 23.1214 20.8786C23.684 21.4412 24.0001 22.2043 24.0001 22.9999C24.0001 23.7956 23.684 24.5587 23.1214 25.1213C22.5588 25.6839 21.7957 25.9999 21.0001 25.9999ZM21.0001 23.9999C21.2653 23.9999 21.5196 23.8946 21.7072 23.7071C21.8947 23.5195 22.0001 23.2652 22.0001 22.9999C22.0001 22.7347 21.8947 22.4804 21.7072 22.2928C21.5196 22.1053 21.2653 21.9999 21.0001 21.9999C20.7348 21.9999 20.4805 22.1053 20.293 22.2928C20.1054 22.4804 20.0001 22.7347 20.0001 22.9999C20.0001 23.2652 20.1054 23.5195 20.293 23.7071C20.4805 23.8946 20.7348 23.9999 21.0001 23.9999Z" fill="#2D3748"/>
</svg>
