<svg width="336" height="45" viewBox="0 0 336 45" fill="none" xmlns="http://www.w3.org/2000/svg">
<rect width="336" height="45" rx="5" fill="#F5F5F5"/>
<path d="M312.172 23L307.222 18.05L308.636 16.636L315 23L308.636 29.364L307.222 27.95L312.172 23Z" fill="#2D3748"/>
<path d="M54.7969 16.625H56.2578L59.9844 25.8984L63.7031 16.625H65.1719L60.5469 28H59.4062L54.7969 16.625ZM54.3203 16.625H55.6094L55.8203 23.5625V28H54.3203V16.625ZM64.3516 16.625H65.6406V28H64.1406V23.5625L64.3516 16.625ZM69.6406 19.5469V28H68.1875V19.5469H69.6406ZM68.0781 17.3047C68.0781 17.0703 68.1484 16.8724 68.2891 16.7109C68.4349 16.5495 68.6484 16.4688 68.9297 16.4688C69.2057 16.4688 69.4167 16.5495 69.5625 16.7109C69.7135 16.8724 69.7891 17.0703 69.7891 17.3047C69.7891 17.5286 69.7135 17.7214 69.5625 17.8828C69.4167 18.0391 69.2057 18.1172 68.9297 18.1172C68.6484 18.1172 68.4349 18.0391 68.2891 17.8828C68.1484 17.7214 68.0781 17.5286 68.0781 17.3047ZM73.4062 21.3516V28H71.9609V19.5469H73.3281L73.4062 21.3516ZM73.0625 23.4531L72.4609 23.4297C72.4661 22.8516 72.5521 22.3177 72.7188 21.8281C72.8854 21.3333 73.1198 20.9036 73.4219 20.5391C73.724 20.1745 74.0833 19.8932 74.5 19.6953C74.9219 19.4922 75.388 19.3906 75.8984 19.3906C76.3151 19.3906 76.6901 19.4479 77.0234 19.5625C77.3568 19.6719 77.6406 19.849 77.875 20.0938C78.1146 20.3385 78.2969 20.6562 78.4219 21.0469C78.5469 21.4323 78.6094 21.9036 78.6094 22.4609V28H77.1562V22.4453C77.1562 22.0026 77.0911 21.6484 76.9609 21.3828C76.8307 21.112 76.6406 20.9167 76.3906 20.7969C76.1406 20.6719 75.8333 20.6094 75.4688 20.6094C75.1094 20.6094 74.7812 20.6849 74.4844 20.8359C74.1927 20.987 73.9401 21.1953 73.7266 21.4609C73.5182 21.7266 73.3542 22.0312 73.2344 22.375C73.1198 22.7135 73.0625 23.0729 73.0625 23.4531ZM85.7891 26.5547V22.2031C85.7891 21.8698 85.7214 21.5807 85.5859 21.3359C85.4557 21.0859 85.2578 20.8932 84.9922 20.7578C84.7266 20.6224 84.3984 20.5547 84.0078 20.5547C83.6432 20.5547 83.3229 20.6172 83.0469 20.7422C82.776 20.8672 82.5625 21.0312 82.4062 21.2344C82.2552 21.4375 82.1797 21.6562 82.1797 21.8906H80.7344C80.7344 21.5885 80.8125 21.2891 80.9688 20.9922C81.125 20.6953 81.349 20.4271 81.6406 20.1875C81.9375 19.9427 82.2917 19.75 82.7031 19.6094C83.1198 19.4635 83.5833 19.3906 84.0938 19.3906C84.7083 19.3906 85.25 19.4948 85.7188 19.7031C86.1927 19.9115 86.5625 20.2266 86.8281 20.6484C87.099 21.0651 87.2344 21.5885 87.2344 22.2188V26.1562C87.2344 26.4375 87.2578 26.737 87.3047 27.0547C87.3568 27.3724 87.4323 27.6458 87.5312 27.875V28H86.0234C85.9505 27.8333 85.8932 27.612 85.8516 27.3359C85.8099 27.0547 85.7891 26.7943 85.7891 26.5547ZM86.0391 22.875L86.0547 23.8906H84.5938C84.1823 23.8906 83.8151 23.9245 83.4922 23.9922C83.1693 24.0547 82.8984 24.151 82.6797 24.2812C82.4609 24.4115 82.2943 24.5755 82.1797 24.7734C82.0651 24.9661 82.0078 25.1927 82.0078 25.4531C82.0078 25.7188 82.0677 25.9609 82.1875 26.1797C82.3073 26.3984 82.487 26.5729 82.7266 26.7031C82.9714 26.8281 83.2708 26.8906 83.625 26.8906C84.0677 26.8906 84.4583 26.7969 84.7969 26.6094C85.1354 26.4219 85.4036 26.1927 85.6016 25.9219C85.8047 25.651 85.9141 25.388 85.9297 25.1328L86.5469 25.8281C86.5104 26.0469 86.4115 26.2891 86.25 26.5547C86.0885 26.8203 85.8724 27.0755 85.6016 27.3203C85.3359 27.5599 85.0182 27.7604 84.6484 27.9219C84.2839 28.0781 83.8724 28.1562 83.4141 28.1562C82.8411 28.1562 82.3385 28.0443 81.9062 27.8203C81.4792 27.5964 81.1458 27.2969 80.9062 26.9219C80.6719 26.5417 80.5547 26.1172 80.5547 25.6484C80.5547 25.1953 80.6432 24.7969 80.8203 24.4531C80.9974 24.1042 81.2526 23.8151 81.5859 23.5859C81.9193 23.3516 82.3203 23.1745 82.7891 23.0547C83.2578 22.9349 83.7812 22.875 84.3594 22.875H86.0391ZM98.4609 26.5547V22.2031C98.4609 21.8698 98.3932 21.5807 98.2578 21.3359C98.1276 21.0859 97.9297 20.8932 97.6641 20.7578C97.3984 20.6224 97.0703 20.5547 96.6797 20.5547C96.3151 20.5547 95.9948 20.6172 95.7188 20.7422C95.4479 20.8672 95.2344 21.0312 95.0781 21.2344C94.9271 21.4375 94.8516 21.6562 94.8516 21.8906H93.4062C93.4062 21.5885 93.4844 21.2891 93.6406 20.9922C93.7969 20.6953 94.0208 20.4271 94.3125 20.1875C94.6094 19.9427 94.9635 19.75 95.375 19.6094C95.7917 19.4635 96.2552 19.3906 96.7656 19.3906C97.3802 19.3906 97.9219 19.4948 98.3906 19.7031C98.8646 19.9115 99.2344 20.2266 99.5 20.6484C99.7708 21.0651 99.9062 21.5885 99.9062 22.2188V26.1562C99.9062 26.4375 99.9297 26.737 99.9766 27.0547C100.029 27.3724 100.104 27.6458 100.203 27.875V28H98.6953C98.6224 27.8333 98.5651 27.612 98.5234 27.3359C98.4818 27.0547 98.4609 26.7943 98.4609 26.5547ZM98.7109 22.875L98.7266 23.8906H97.2656C96.8542 23.8906 96.487 23.9245 96.1641 23.9922C95.8411 24.0547 95.5703 24.151 95.3516 24.2812C95.1328 24.4115 94.9661 24.5755 94.8516 24.7734C94.737 24.9661 94.6797 25.1927 94.6797 25.4531C94.6797 25.7188 94.7396 25.9609 94.8594 26.1797C94.9792 26.3984 95.1589 26.5729 95.3984 26.7031C95.6432 26.8281 95.9427 26.8906 96.2969 26.8906C96.7396 26.8906 97.1302 26.7969 97.4688 26.6094C97.8073 26.4219 98.0755 26.1927 98.2734 25.9219C98.4766 25.651 98.5859 25.388 98.6016 25.1328L99.2188 25.8281C99.1823 26.0469 99.0833 26.2891 98.9219 26.5547C98.7604 26.8203 98.5443 27.0755 98.2734 27.3203C98.0078 27.5599 97.6901 27.7604 97.3203 27.9219C96.9557 28.0781 96.5443 28.1562 96.0859 28.1562C95.513 28.1562 95.0104 28.0443 94.5781 27.8203C94.151 27.5964 93.8177 27.2969 93.5781 26.9219C93.3438 26.5417 93.2266 26.1172 93.2266 25.6484C93.2266 25.1953 93.3151 24.7969 93.4922 24.4531C93.6693 24.1042 93.9245 23.8151 94.2578 23.5859C94.5911 23.3516 94.9922 23.1745 95.4609 23.0547C95.9297 22.9349 96.4531 22.875 97.0312 22.875H98.7109ZM103.625 21.3516V28H102.18V19.5469H103.547L103.625 21.3516ZM103.281 23.4531L102.68 23.4297C102.685 22.8516 102.771 22.3177 102.938 21.8281C103.104 21.3333 103.339 20.9036 103.641 20.5391C103.943 20.1745 104.302 19.8932 104.719 19.6953C105.141 19.4922 105.607 19.3906 106.117 19.3906C106.534 19.3906 106.909 19.4479 107.242 19.5625C107.576 19.6719 107.859 19.849 108.094 20.0938C108.333 20.3385 108.516 20.6562 108.641 21.0469C108.766 21.4323 108.828 21.9036 108.828 22.4609V28H107.375V22.4453C107.375 22.0026 107.31 21.6484 107.18 21.3828C107.049 21.112 106.859 20.9167 106.609 20.7969C106.359 20.6719 106.052 20.6094 105.688 20.6094C105.328 20.6094 105 20.6849 104.703 20.8359C104.411 20.987 104.159 21.1953 103.945 21.4609C103.737 21.7266 103.573 22.0312 103.453 22.375C103.339 22.7135 103.281 23.0729 103.281 23.4531ZM112.469 21.3516V28H111.023V19.5469H112.391L112.469 21.3516ZM112.125 23.4531L111.523 23.4297C111.529 22.8516 111.615 22.3177 111.781 21.8281C111.948 21.3333 112.182 20.9036 112.484 20.5391C112.786 20.1745 113.146 19.8932 113.562 19.6953C113.984 19.4922 114.451 19.3906 114.961 19.3906C115.378 19.3906 115.753 19.4479 116.086 19.5625C116.419 19.6719 116.703 19.849 116.938 20.0938C117.177 20.3385 117.359 20.6562 117.484 21.0469C117.609 21.4323 117.672 21.9036 117.672 22.4609V28H116.219V22.4453C116.219 22.0026 116.154 21.6484 116.023 21.3828C115.893 21.112 115.703 20.9167 115.453 20.7969C115.203 20.6719 114.896 20.6094 114.531 20.6094C114.172 20.6094 113.844 20.6849 113.547 20.8359C113.255 20.987 113.003 21.1953 112.789 21.4609C112.581 21.7266 112.417 22.0312 112.297 22.375C112.182 22.7135 112.125 23.0729 112.125 23.4531ZM119.484 23.8672V23.6875C119.484 23.0781 119.573 22.513 119.75 21.9922C119.927 21.4661 120.182 21.0104 120.516 20.625C120.849 20.2344 121.253 19.9323 121.727 19.7188C122.201 19.5 122.732 19.3906 123.32 19.3906C123.914 19.3906 124.448 19.5 124.922 19.7188C125.401 19.9323 125.807 20.2344 126.141 20.625C126.479 21.0104 126.737 21.4661 126.914 21.9922C127.091 22.513 127.18 23.0781 127.18 23.6875V23.8672C127.18 24.4766 127.091 25.0417 126.914 25.5625C126.737 26.0833 126.479 26.5391 126.141 26.9297C125.807 27.3151 125.404 27.6172 124.93 27.8359C124.461 28.0495 123.93 28.1562 123.336 28.1562C122.742 28.1562 122.208 28.0495 121.734 27.8359C121.26 27.6172 120.854 27.3151 120.516 26.9297C120.182 26.5391 119.927 26.0833 119.75 25.5625C119.573 25.0417 119.484 24.4766 119.484 23.8672ZM120.93 23.6875V23.8672C120.93 24.2891 120.979 24.6875 121.078 25.0625C121.177 25.4323 121.326 25.7604 121.523 26.0469C121.727 26.3333 121.979 26.5599 122.281 26.7266C122.583 26.888 122.935 26.9688 123.336 26.9688C123.732 26.9688 124.078 26.888 124.375 26.7266C124.677 26.5599 124.927 26.3333 125.125 26.0469C125.323 25.7604 125.471 25.4323 125.57 25.0625C125.674 24.6875 125.727 24.2891 125.727 23.8672V23.6875C125.727 23.2708 125.674 22.8776 125.57 22.5078C125.471 22.1328 125.32 21.8021 125.117 21.5156C124.919 21.224 124.669 20.9948 124.367 20.8281C124.07 20.6615 123.721 20.5781 123.32 20.5781C122.924 20.5781 122.576 20.6615 122.273 20.8281C121.977 20.9948 121.727 21.224 121.523 21.5156C121.326 21.8021 121.177 22.1328 121.078 22.5078C120.979 22.8776 120.93 23.2708 120.93 23.6875ZM130.438 21.3516V28H128.992V19.5469H130.359L130.438 21.3516ZM130.094 23.4531L129.492 23.4297C129.497 22.8516 129.583 22.3177 129.75 21.8281C129.917 21.3333 130.151 20.9036 130.453 20.5391C130.755 20.1745 131.115 19.8932 131.531 19.6953C131.953 19.4922 132.419 19.3906 132.93 19.3906C133.346 19.3906 133.721 19.4479 134.055 19.5625C134.388 19.6719 134.672 19.849 134.906 20.0937C135.146 20.3385 135.328 20.6562 135.453 21.0469C135.578 21.4323 135.641 21.9036 135.641 22.4609V28H134.188V22.4453C134.188 22.0026 134.122 21.6484 133.992 21.3828C133.862 21.112 133.672 20.9167 133.422 20.7969C133.172 20.6719 132.865 20.6094 132.5 20.6094C132.141 20.6094 131.812 20.6849 131.516 20.8359C131.224 20.987 130.971 21.1953 130.758 21.4609C130.549 21.7266 130.385 22.0312 130.266 22.375C130.151 22.7135 130.094 23.0729 130.094 23.4531ZM142.758 25.7578C142.758 25.5495 142.711 25.3568 142.617 25.1797C142.529 24.9974 142.344 24.8333 142.062 24.6875C141.786 24.5365 141.37 24.4062 140.812 24.2969C140.344 24.1979 139.919 24.0807 139.539 23.9453C139.164 23.8099 138.844 23.6458 138.578 23.4531C138.318 23.2604 138.117 23.0339 137.977 22.7734C137.836 22.513 137.766 22.2083 137.766 21.8594C137.766 21.526 137.839 21.2109 137.984 20.9141C138.135 20.6172 138.346 20.3542 138.617 20.125C138.893 19.8958 139.224 19.7161 139.609 19.5859C139.995 19.4557 140.424 19.3906 140.898 19.3906C141.576 19.3906 142.154 19.5104 142.633 19.75C143.112 19.9896 143.479 20.3099 143.734 20.7109C143.99 21.1068 144.117 21.5469 144.117 22.0312H142.672C142.672 21.7969 142.602 21.5703 142.461 21.3516C142.326 21.1276 142.125 20.9427 141.859 20.7969C141.599 20.651 141.279 20.5781 140.898 20.5781C140.497 20.5781 140.172 20.6406 139.922 20.7656C139.677 20.8854 139.497 21.0391 139.383 21.2266C139.273 21.4141 139.219 21.612 139.219 21.8203C139.219 21.9766 139.245 22.1172 139.297 22.2422C139.354 22.362 139.453 22.474 139.594 22.5781C139.734 22.6771 139.932 22.7708 140.188 22.8594C140.443 22.9479 140.768 23.0365 141.164 23.125C141.857 23.2812 142.427 23.4688 142.875 23.6875C143.323 23.9062 143.656 24.1745 143.875 24.4922C144.094 24.8099 144.203 25.1953 144.203 25.6484C144.203 26.0182 144.125 26.3568 143.969 26.6641C143.818 26.9714 143.596 27.237 143.305 27.4609C143.018 27.6797 142.674 27.8516 142.273 27.9766C141.878 28.0964 141.432 28.1562 140.938 28.1562C140.193 28.1562 139.562 28.0234 139.047 27.7578C138.531 27.4922 138.141 27.1484 137.875 26.7266C137.609 26.3047 137.477 25.8594 137.477 25.3906H138.93C138.951 25.7865 139.065 26.1016 139.273 26.3359C139.482 26.5651 139.737 26.7292 140.039 26.8281C140.341 26.9219 140.641 26.9688 140.938 26.9688C141.333 26.9688 141.664 26.9167 141.93 26.8125C142.201 26.7083 142.406 26.5651 142.547 26.3828C142.688 26.2005 142.758 25.9922 142.758 25.7578ZM149.609 28.1562C149.021 28.1562 148.487 28.0573 148.008 27.8594C147.534 27.6562 147.125 27.3724 146.781 27.0078C146.443 26.6432 146.182 26.2109 146 25.7109C145.818 25.2109 145.727 24.6641 145.727 24.0703V23.7422C145.727 23.0547 145.828 22.4427 146.031 21.9062C146.234 21.3646 146.51 20.9062 146.859 20.5312C147.208 20.1562 147.604 19.8724 148.047 19.6797C148.49 19.487 148.948 19.3906 149.422 19.3906C150.026 19.3906 150.547 19.4948 150.984 19.7031C151.427 19.9115 151.789 20.2031 152.07 20.5781C152.352 20.9479 152.56 21.3854 152.695 21.8906C152.831 22.3906 152.898 22.9375 152.898 23.5312V24.1797L146.586 24.1797V23L151.453 23V22.8906C151.432 22.5156 151.354 22.151 151.219 21.7969C151.089 21.4427 150.88 21.151 150.594 20.9219C150.307 20.6927 149.917 20.5781 149.422 20.5781C149.094 20.5781 148.792 20.6484 148.516 20.7891C148.24 20.9245 148.003 21.1276 147.805 21.3984C147.607 21.6693 147.453 22 147.344 22.3906C147.234 22.7812 147.18 23.2318 147.18 23.7422V24.0703C147.18 24.4714 147.234 24.849 147.344 25.2031C147.458 25.5521 147.622 25.8594 147.836 26.125C148.055 26.3906 148.318 26.599 148.625 26.75C148.938 26.901 149.292 26.9766 149.688 26.9766C150.198 26.9766 150.63 26.8724 150.984 26.6641C151.339 26.4557 151.648 26.1771 151.914 25.8281L152.789 26.5234C152.607 26.7995 152.375 27.0625 152.094 27.3125C151.812 27.5625 151.466 27.7656 151.055 27.9219C150.648 28.0781 150.167 28.1562 149.609 28.1562ZM156.031 20.875V28H154.586V19.5469H155.992L156.031 20.875ZM158.672 19.5L158.664 20.8437C158.544 20.8177 158.43 20.8021 158.32 20.7969C158.216 20.7865 158.096 20.7812 157.961 20.7812C157.628 20.7812 157.333 20.8333 157.078 20.9375C156.823 21.0417 156.607 21.1875 156.43 21.375C156.253 21.5625 156.112 21.7865 156.008 22.0469C155.909 22.3021 155.844 22.5833 155.812 22.8906L155.406 23.125C155.406 22.6146 155.456 22.1354 155.555 21.6875C155.659 21.2396 155.818 20.8437 156.031 20.5C156.245 20.151 156.516 19.8802 156.844 19.6875C157.177 19.4896 157.573 19.3906 158.031 19.3906C158.135 19.3906 158.255 19.4036 158.391 19.4297C158.526 19.4505 158.62 19.474 158.672 19.5Z" fill="black"/>
<path d="M29.3333 13.65L27.6667 12L26 13.65L24.3333 12L22.6667 13.65L21 12L19.3333 13.65L17.6667 12L16 13.65L14.3333 12L12.6667 13.65L11 12V34L12.6667 32.35L14.3333 34L16 32.35L17.6667 34L19.3333 32.35L21 34L22.6667 32.35L24.3333 34L26 32.35L27.6667 34L29.3333 32.35L31 34V12L29.3333 13.65ZM28.7778 30.799H13.2222V15.201H28.7778V30.799ZM14.3333 26.3H27.6667V28.5H14.3333V26.3ZM14.3333 21.9H27.6667V24.1H14.3333V21.9ZM14.3333 17.5H27.6667V19.7H14.3333V17.5Z" fill="#464646"/>
</svg>
